<svg width="126" height="126" viewBox="0 0 126 126" fill="none" xmlns="http://www.w3.org/2000/svg">
    <g clip-path="url(#clip0_16_139)">
        <g filter="url(#filter0_d_16_139)">
            <path
                d="M99.7914 29.8236C98.9352 29.4472 97.9864 29.3338 97.0656 29.4977C96.1447 29.6616 95.2934 30.0954 94.6196 30.7441L78.8121 45.9155L55.0694 24.8389C54.4595 24.2983 53.7202 23.9245 52.9232 23.7536C52.1263 23.5828 51.2987 23.6208 50.5208 23.8639C49.7428 24.107 49.0409 24.547 48.483 25.1413C47.9251 25.7355 47.5303 26.4638 47.3367 27.2555L39.8237 58.1121L18.1978 54.639C17.2776 54.4924 16.3345 54.6208 15.487 55.0081C14.6394 55.3955 13.9251 56.0245 13.4338 56.8163C12.9424 57.6081 12.6959 58.5274 12.7251 59.4588C12.7543 60.3902 13.0579 61.2922 13.5979 62.0517L40.6015 100.006C40.8729 100.387 41.2265 100.703 41.6361 100.929C42.0457 101.155 42.5009 101.287 42.9682 101.314C43.4354 101.34 43.9027 101.262 44.3355 101.084C44.7684 100.906 45.1557 100.633 45.469 100.286C45.5447 100.201 53.362 91.7292 70.0952 86.4999C86.8284 81.2706 98.0782 83.7832 98.1803 83.8086C98.6366 83.9182 99.1118 83.9236 99.5704 83.8244C100.029 83.7253 100.46 83.524 100.83 83.2357C101.2 82.9474 101.501 82.5794 101.709 82.159C101.918 81.7387 102.029 81.2767 102.035 80.8074L102.625 34.242C102.644 33.3075 102.385 32.3884 101.881 31.6016C101.376 30.8148 100.649 30.1959 99.7914 29.8236ZM83.8306 67.8017C83.9245 68.5297 83.759 69.2676 83.3633 69.8859C82.9676 70.5042 82.3669 70.9634 81.6665 71.1831C81.4915 71.2376 81.3122 71.2772 81.1305 71.3015C71.0921 72.6434 61.3558 75.6861 52.3396 80.299C51.975 80.4876 51.5769 80.6026 51.1679 80.6374C50.7589 80.6721 50.3471 80.626 49.9559 80.5016C49.1659 80.2504 48.5081 79.6956 48.1272 78.9594C47.7462 78.2231 47.6733 77.3657 47.9245 76.5757C48.1758 75.7857 48.7305 75.1279 49.4668 74.7469C59.1315 69.8004 69.5692 66.5385 80.3307 65.1016C80.7386 65.0469 81.1533 65.0732 81.551 65.1792C81.9487 65.2851 82.3215 65.4686 82.6481 65.7191C82.9747 65.9695 83.2486 66.282 83.4541 66.6386C83.6595 66.9952 83.7926 67.3889 83.8455 67.797L83.8306 67.8017Z"
                fill="#FFD337" />
            <path
                d="M83.8306 67.8017C83.9245 68.5297 83.759 69.2676 83.3633 69.8859C82.9676 70.5042 82.3669 70.9634 81.6665 71.1831C81.4915 71.2376 81.3122 71.2772 81.1305 71.3015C71.0921 72.6434 61.3558 75.6861 52.3396 80.299C51.975 80.4876 51.5769 80.6026 51.1679 80.6374C50.7589 80.6721 50.3471 80.626 49.9559 80.5016C49.1659 80.2504 48.5081 79.6956 48.1272 78.9594C47.7462 78.2231 47.6733 77.3657 47.9245 76.5757C48.1758 75.7857 48.7305 75.1279 49.4668 74.7469C59.1315 69.8004 69.5692 66.5385 80.3307 65.1016C80.7386 65.0469 81.1533 65.0732 81.551 65.1792C81.9487 65.2851 82.3215 65.4686 82.6481 65.7191C82.9747 65.9695 83.2486 66.282 83.4541 66.6386C83.6595 66.9952 83.7926 67.3889 83.8455 67.797L83.8306 67.8017Z"
                fill="white" />
        </g>
    </g>
    <defs>
        <filter id="filter0_d_16_139" x="2.72278" y="17.6486" width="109.903" height="97.6702"
            filterUnits="userSpaceOnUse" color-interpolation-filters="sRGB">
            <feFlood flood-opacity="0" result="BackgroundImageFix" />
            <feColorMatrix in="SourceAlpha" type="matrix" values="0 0 0 0 0 0 0 0 0 0 0 0 0 0 0 0 0 0 127 0"
                result="hardAlpha" />
            <feOffset dy="4" />
            <feGaussianBlur stdDeviation="5" />
            <feComposite in2="hardAlpha" operator="out" />
            <feColorMatrix type="matrix" values="0 0 0 0 1 0 0 0 0 1 0 0 0 0 1 0 0 0 0.2 0" />
            <feBlend mode="normal" in2="BackgroundImageFix" result="effect1_dropShadow_16_139" />
            <feBlend mode="normal" in="SourceGraphic" in2="effect1_dropShadow_16_139" result="shape" />
        </filter>
        <clipPath id="clip0_16_139">
            <rect width="100" height="100" fill="white" transform="translate(0 29.8284) rotate(-17.3546)" />
        </clipPath>
    </defs>
</svg>