<svg width="737" height="231" viewBox="0 0 737 231" fill="none" xmlns="http://www.w3.org/2000/svg">
    <path d="M297.937 225.669C286.5 225.669 277.336 222.856 270.445 217.229C263.554 211.602 260.108 201.607 260.108 187.243V139.266H241.414V115.5H260.108L263.407 85.9587H288.26V115.5H317.731V139.266H288.26V187.465C288.26 192.796 289.359 196.498 291.559 198.571C293.905 200.496 297.864 201.459 303.435 201.459H317.071V225.669H297.937Z" fill="#0C0E6B"/>
    <path d="M392.113 228.335C381.116 228.335 371.366 225.965 362.862 221.227C354.358 216.488 347.687 209.825 342.848 201.237C338.009 192.648 335.59 182.727 335.59 171.473C335.59 160.071 337.936 149.928 342.628 141.043C347.467 132.159 354.065 125.273 362.422 120.387C370.926 115.352 380.896 112.835 392.333 112.835C403.036 112.835 412.494 115.204 420.704 119.942C428.915 124.681 435.293 131.196 439.839 139.488C444.531 147.633 446.877 156.739 446.877 166.809C446.877 168.437 446.803 170.14 446.657 171.917C446.657 173.694 446.583 175.545 446.437 177.47H363.522C364.108 186.059 367.041 192.796 372.319 197.683C377.744 202.569 384.269 205.012 391.893 205.012C397.611 205.012 402.377 203.754 406.189 201.237C410.148 198.571 413.08 195.165 414.986 191.019H443.578C441.525 197.979 438.079 204.346 433.241 210.121C428.549 215.748 422.684 220.19 415.646 223.448C408.755 226.706 400.91 228.335 392.113 228.335ZM392.333 135.935C385.442 135.935 379.357 137.934 374.079 141.932C368.8 145.782 365.428 151.705 363.962 159.701H418.285C417.845 152.445 415.206 146.67 410.368 142.376C405.529 138.082 399.518 135.935 392.333 135.935Z" fill="#0C0E6B"/>
    <path d="M470.554 225.669V115.5H495.626L498.265 136.157C502.224 129.049 507.576 123.422 514.321 119.276C521.212 114.982 529.276 112.835 538.513 112.835V142.82H530.596C524.438 142.82 518.939 143.783 514.101 145.708C509.262 147.633 505.45 150.964 502.664 155.703C500.025 160.441 498.705 167.031 498.705 175.471V225.669H470.554Z" fill="#0C0E6B"/>
    <path d="M557.754 225.669V115.5H582.607L585.026 130.382C588.545 125.051 593.163 120.831 598.882 117.721C604.747 114.463 611.491 112.835 619.116 112.835C635.977 112.835 647.927 119.424 654.965 132.603C658.924 126.532 664.202 121.719 670.8 118.165C677.545 114.612 684.876 112.835 692.793 112.835C707.016 112.835 717.939 117.129 725.564 125.717C733.188 134.306 737 146.892 737 163.477V225.669H708.849V166.142C708.849 156.665 707.016 149.41 703.35 144.375C699.831 139.34 694.333 136.823 686.855 136.823C679.231 136.823 673.073 139.637 668.381 145.263C663.835 150.89 661.563 158.738 661.563 168.808V225.669H633.411V166.142C633.411 156.665 631.578 149.41 627.913 144.375C624.247 139.34 618.602 136.823 610.978 136.823C603.5 136.823 597.415 139.637 592.724 145.263C588.178 150.89 585.906 158.738 585.906 168.808V225.669H557.754Z" fill="#0C0E6B"/>
    <path d="M113.046 231C91.0526 231 71.5518 226.262 54.5436 216.785C37.5353 207.308 24.1927 193.981 14.5156 176.804C4.83854 159.627 0 139.785 0 117.277C0 94.4731 4.69192 74.1865 14.0758 56.4173C23.7528 38.6481 36.9489 24.8769 53.6638 15.1038C70.672 5.03461 90.6127 0 113.486 0C134.893 0 153.807 4.73846 170.229 14.2154C186.65 23.6923 199.407 36.7231 208.497 53.3077C217.881 69.5962 222.573 87.8096 222.573 107.948C222.573 111.206 222.426 114.612 222.133 118.165C222.133 121.719 221.986 125.421 221.693 129.271H55.8632C57.0361 146.448 62.901 159.923 73.4578 169.696C84.3079 179.469 97.3573 184.356 112.606 184.356C124.043 184.356 133.573 181.838 141.197 176.804C149.115 171.473 154.98 164.662 158.792 156.369H215.975C211.869 170.288 204.978 183.023 195.301 194.573C185.917 205.827 174.187 214.712 160.112 221.227C146.329 227.742 130.641 231 113.046 231ZM113.486 46.2C99.7033 46.2 87.5336 50.1981 76.9768 58.1942C66.42 65.8942 59.6753 77.7404 56.7429 93.7327H165.39C164.51 79.2212 159.232 67.6712 149.555 59.0827C139.878 50.4942 127.855 46.2 113.486 46.2Z" fill="#0C0E6B"/>
</svg>
