<svg width="468" height="678" viewBox="0 0 468 678" fill="none" xmlns="http://www.w3.org/2000/svg">
    <g filter="url(#filter0_d_1_123)">
        <path fill-rule="evenodd" clip-rule="evenodd"
            d="M46.4202 185.584C38.2814 185.584 31.6837 177.082 31.6837 166.592V134.123H363.94V166.592C363.94 177.082 357.342 185.584 349.204 185.584H339.077C339.077 180.284 337.176 169.333 329.573 167.921C321.338 166.391 132.284 167.512 77.1498 167.839C68.6458 167.888 63.3277 167.921 62.3508 167.921C56.5019 167.921 55.0396 179.695 55.0396 185.584H46.4202Z"
            fill="#DBDBDB" />
        <path fill-rule="evenodd" clip-rule="evenodd"
            d="M41.4955 74.8316C36.0767 74.8316 31.6837 79.1988 31.6837 84.5858V141.407H363.518V84.5858C363.518 79.1988 359.125 74.8316 353.707 74.8316H344.707C344.707 77.1952 342.748 82.0798 334.913 82.71C326.426 83.3926 131.603 82.8924 74.7852 82.7466C66.0216 82.724 60.5413 82.71 59.5345 82.71C53.507 82.71 52.0002 77.4578 52.0002 74.8316H41.4955Z"
            fill="#DBDBDB" />
        <path fill-rule="evenodd" clip-rule="evenodd"
            d="M46.7863 179.99C38.8943 179.99 37.2773 171.302 37.2773 160.586V127.411H359.465V160.586C359.465 171.302 355.61 179.99 347.718 179.99H343.243C343.243 174.576 342.728 163.535 335.356 162.091C327.371 160.528 134.83 161.525 81.3655 161.86C73.1191 161.911 63.955 161.86 63.0076 161.86C57.3359 161.86 51.8204 173.975 51.8204 179.99H46.7863Z"
            fill="white" />
        <path fill-rule="evenodd" clip-rule="evenodd"
            d="M42.8708 78.1878C37.6094 78.1878 37.2773 81.4166 37.2773 85.3997V127.411H359.465V85.3997C359.465 81.4166 360.251 78.1878 354.99 78.1878H348.278C348.278 79.9352 343.58 84.9336 335.972 85.3997C327.733 85.9043 133.835 85.0079 78.6695 84.9001C70.1606 84.8834 58.3915 84.9001 57.414 84.9001C51.5618 84.9001 49.0237 80.1294 49.0237 78.1878H42.8708Z"
            fill="white" />
        <path
            d="M338.688 74.8316H57.2673C57.2673 76.5029 58.7161 79.8451 64.5111 79.8451C71.7548 79.8451 319.854 80.3465 329.27 79.8451C336.804 79.4441 338.688 76.3357 338.688 74.8316Z"
            fill="#929292" />
        <path fill-rule="evenodd" clip-rule="evenodd"
            d="M57.2673 185.542H334.925C334.925 184.178 334.592 182.2 333.646 180.306H58.1055C57.4886 182.168 57.2673 184.133 57.2673 185.542ZM58.7053 178.81C59.7783 176.579 61.5631 174.798 64.4142 174.798C65.3693 174.798 70.5678 174.779 78.8808 174.749C132.776 174.55 317.585 173.868 325.634 174.798C329.077 175.196 331.324 176.839 332.744 178.81H58.7053Z"
            fill="#929292" />
        <path
            d="M292.367 111.684L108.805 112.179C108.28 112.181 107.76 112.099 107.274 111.936C106.788 111.774 106.346 111.535 105.974 111.233C105.601 110.931 105.305 110.572 105.103 110.177C104.9 109.781 104.795 109.357 104.793 108.929C104.792 108.5 104.894 108.075 105.093 107.679C105.293 107.282 105.586 106.922 105.957 106.618C106.327 106.314 106.767 106.073 107.251 105.908C107.736 105.743 108.256 105.657 108.78 105.657L292.343 105.162C292.867 105.16 293.388 105.242 293.873 105.405C294.359 105.567 294.8 105.806 295.174 106.108C295.546 106.41 295.842 106.769 296.045 107.164C296.248 107.559 296.352 107.984 296.353 108.412C296.356 108.841 296.254 109.266 296.054 109.662C295.854 110.059 295.561 110.419 295.19 110.723C294.821 111.027 294.38 111.268 293.896 111.433C293.411 111.598 292.891 111.684 292.367 111.684Z"
            fill="#65AAFF" />
        <path
            d="M292.442 131.702L108.88 132.197C107.821 132.2 106.804 131.86 106.052 131.25C105.301 130.64 104.877 129.811 104.874 128.947C104.871 128.082 105.288 127.252 106.035 126.637C106.782 126.024 107.796 125.677 108.856 125.675L292.417 125.18C293.477 125.177 294.494 125.518 295.246 126.127C295.997 126.737 296.42 127.566 296.424 128.43C296.426 129.295 296.009 130.126 295.262 130.74C294.516 131.353 293.501 131.7 292.442 131.702Z"
            fill="#65AAFF" />
        <path
            d="M130.346 152.158L108.955 152.215C107.896 152.218 106.879 151.877 106.127 151.267C105.376 150.658 104.952 149.83 104.949 148.964C104.946 148.099 105.363 147.269 106.11 146.656C106.857 146.041 107.871 145.696 108.931 145.692L130.322 145.634C130.847 145.633 131.368 145.715 131.852 145.878C132.338 146.04 132.78 146.279 133.153 146.581C133.525 146.882 133.822 147.241 134.024 147.637C134.227 148.032 134.332 148.457 134.334 148.885C134.335 149.314 134.233 149.738 134.034 150.136C133.834 150.532 133.541 150.892 133.17 151.196C132.8 151.5 132.36 151.741 131.875 151.906C131.39 152.071 130.871 152.156 130.346 152.158Z"
            fill="#65AAFF" />
        <path
            d="M317.74 225.761V225.756C319.885 208.945 318.667 191.875 314.16 175.541L314.159 175.535C313.853 174.438 313.794 173.287 313.988 172.164C314.183 171.042 314.624 169.976 315.281 169.046L315.282 169.045C315.907 168.156 316.721 167.414 317.663 166.873C318.605 166.333 319.654 166.004 320.736 165.913L321.068 165.884L321.368 165.739C335.015 159.128 348.343 158.204 361.092 162.863L361.438 162.99L361.806 162.97C363.599 162.872 365.368 163.418 366.796 164.51C368.221 165.601 369.212 167.165 369.592 168.922C373.403 187.151 374.734 205.812 373.548 224.4C373.42 226.214 372.643 227.923 371.36 229.211C370.075 230.5 368.37 231.282 366.558 231.413L325.73 234.34H325.727C324.625 234.421 323.519 234.256 322.488 233.855C321.458 233.455 320.531 232.83 319.771 232.025L318.462 233.26L319.77 232.024C318.989 231.197 318.401 230.206 318.049 229.122C317.698 228.04 317.592 226.891 317.74 225.761Z"
            fill="#65AAFF" stroke="#F0F0F0" stroke-width="3" />
        <path
            d="M344.227 180.289C334.28 180.289 326.208 188.362 326.208 198.308C326.208 208.255 334.28 216.329 344.227 216.329C354.174 216.329 362.246 208.255 362.246 198.308C362.246 188.362 354.174 180.289 344.227 180.289ZM344.227 212.724C336.281 212.724 329.812 206.255 329.812 198.308C329.812 190.362 336.281 183.893 344.227 183.893C352.174 183.893 358.643 190.362 358.643 198.308C358.643 206.255 352.174 212.724 344.227 212.724ZM351.218 191.623L340.624 202.219L337.236 198.832C336.899 198.494 336.442 198.305 335.965 198.305C335.489 198.305 335.032 198.494 334.694 198.832C334.358 199.169 334.169 199.625 334.169 200.101C334.169 200.578 334.358 201.035 334.694 201.372L339.362 206.039C340.064 206.742 341.2 206.742 341.903 206.039L353.778 194.165C353.945 193.998 354.077 193.8 354.168 193.582C354.258 193.363 354.305 193.13 354.305 192.894C354.305 192.658 354.258 192.425 354.168 192.206C354.077 191.988 353.945 191.79 353.778 191.623C353.075 190.921 351.922 190.921 351.218 191.623Z"
            fill="#E2EFFF" />
    </g>
    <path
        d="M52.0032 154.236L55.2711 174.077L75.1112 177.344L55.2711 180.612L52.0032 200.453L48.7352 180.612L28.8951 177.344L48.7352 174.077L52.0032 154.236Z"
        fill="url(#paint0_linear_1_123)" />
    <path
        d="M37.3421 187.08L38.8263 196.091L47.8374 197.575L38.8263 199.058L37.3421 208.07L35.8578 199.058L26.8467 197.575L35.8578 196.091L37.3421 187.08Z"
        fill="url(#paint1_linear_1_123)" />
    <path
        d="M35.058 76.5262L41.2707 77.1404L43.8451 71.4529L43.2309 77.6657L48.9185 80.24L42.7057 79.6257L40.1313 85.3133L40.7455 79.1005L35.058 76.5262Z"
        fill="url(#paint2_linear_1_123)" />
    <path
        d="M385.997 166.273L391.207 170.01L396.418 166.273L392.681 171.484L396.418 176.694L391.207 172.957L385.997 176.694L389.734 171.484L385.997 166.273Z"
        fill="url(#paint3_linear_1_123)" />
    <path
        d="M385.157 95.416L381.888 75.576L362.048 72.3079L381.888 69.04L385.157 49.2L388.424 69.04L408.264 72.3079L388.424 75.576L385.157 95.416Z"
        fill="url(#paint4_linear_1_123)" />
    <path
        d="M370.495 103.034L369.011 94.0228L360 92.5385L369.011 91.0542L370.495 82.0432L371.98 91.0542L380.99 92.5385L371.98 94.0228L370.495 103.034Z"
        fill="url(#paint5_linear_1_123)" />
    <g filter="url(#filter1_d_1_123)">
        <path
            d="M110.187 236.018C109.906 235.662 109.604 235.324 109.282 235.004C109.36 234.896 109.439 234.779 109.518 234.671L110.187 236.018Z"
            fill="#2F2E41" />
        <path
            d="M114.209 319.201C110.826 325.211 104.068 328.565 97.3703 330.206C89.8467 332.178 81.924 332.024 74.4821 329.765C73.5379 329.46 72.5937 329.106 71.6789 328.712C72.1187 327.545 72.4673 326.344 72.7215 325.122C73.0639 323.47 73.2353 321.785 73.233 320.096C72.4877 321.551 71.5222 322.882 70.3707 324.041C69.4824 324.973 68.4736 325.784 67.3708 326.45C63.9502 324.374 60.9885 321.624 58.666 318.366C58.8135 318.002 58.9611 317.638 59.0988 317.274C59.8131 315.373 60.3786 313.421 60.7906 311.432C61.3494 308.744 61.6296 306.005 61.6266 303.259C60.4139 305.626 58.8411 307.788 56.9644 309.672C56.4017 310.273 55.804 310.842 55.1742 311.374C54.1991 308.412 53.8221 305.286 54.0652 302.178C54.3084 299.07 55.1668 296.041 56.5906 293.267C60.4857 286.068 68.0395 281.79 74.7673 277.138C81.505 272.486 88.2426 266.191 88.813 258.019C89.1966 252.502 86.6393 246.974 87.6622 241.546C88.0925 239.256 89.1427 237.128 90.6987 235.394C92.2547 233.662 94.2565 232.387 96.4864 231.713C98.7162 231.038 101.088 230.989 103.345 231.569C105.601 232.15 107.654 233.338 109.282 235.004C105.465 240.414 101.669 246.011 100.124 252.443C98.5506 258.992 99.8391 266.674 105.003 271.01C106.773 272.506 108.947 273.568 110.314 275.436C112.134 277.915 112.144 281.219 112.439 284.268C113.029 290.198 114.967 295.903 116.009 301.774C117.062 307.636 117.121 313.999 114.209 319.201Z"
            fill="#2F2E41" />
        <path d="M44.8483 563.093L53.8254 570.028L84.8501 538.706L71.6008 528.47L44.8483 563.093Z" fill="#E2AAAA" />
        <path
            d="M45.2303 556.316L60.075 566.432L55.3773 572.512L61.6687 592.252C61.9797 593.227 61.9707 594.276 61.6432 595.246C61.3157 596.214 60.6869 597.054 59.8486 597.641C59.0103 598.228 58.0062 598.531 56.9831 598.507C55.96 598.483 54.9714 598.133 54.1617 597.506L37.2676 584.454L39.0025 576.191L33.2187 581.326L26.8489 576.404L45.2303 556.316Z"
            fill="#2F2E41" />
        <path
            d="M90.3918 253.49C90.3906 256.998 91.2503 260.452 92.8955 263.549C94.5407 266.646 96.9212 269.292 99.8279 271.255C102.735 273.217 106.079 274.436 109.567 274.805C113.055 275.173 116.58 274.68 119.833 273.368C123.085 272.057 125.966 269.968 128.222 267.282C130.48 264.598 132.042 261.4 132.774 257.97C133.506 254.54 133.385 250.984 132.421 247.612C131.458 244.24 129.68 241.156 127.247 238.631L127.144 238.528C126.972 238.348 126.8 238.168 126.62 237.996H126.618L126.614 237.994L126.613 237.991L126.612 237.988C126.389 237.782 126.167 237.576 125.935 237.379C122.164 234.071 116.864 230.48 111.455 230.48C99.6191 230.48 90.3918 241.656 90.3918 253.49Z"
            fill="#2F2E41" />
        <path
            d="M212.522 242.489C212.626 243.631 212.477 244.782 212.086 245.861C211.696 246.94 211.073 247.92 210.263 248.732C209.452 249.545 208.474 250.17 207.396 250.562C206.317 250.956 205.166 251.108 204.024 251.009L150.965 298.91L141.834 284.49L196.86 241.939C197.155 240.03 198.14 238.295 199.628 237.064C201.116 235.832 203.005 235.189 204.936 235.258C206.867 235.325 208.705 236.099 210.103 237.432C211.501 238.764 212.363 240.564 212.522 242.489Z"
            fill="#E2AAAA" />
        <path
            d="M128.288 313.368C128.288 313.368 130.262 317.015 137.006 311.384C142.404 306.878 168.269 287.312 173.842 279.295C175.114 279.799 176.518 279.865 177.832 279.484C179.147 279.102 180.296 278.294 181.1 277.187L165.834 263.818C161.266 264.343 161.363 267.412 161.839 269.154L150.323 274.372L120.584 293.375L126.815 310.758L128.288 313.368Z"
            fill="#65AAFF" />
        <path
            d="M99.4782 346.957L98.366 352.253L97.4218 371.786L138.996 374.071L137.705 344.028L133.675 337.408L99.4782 346.957Z"
            fill="#E2AAAA" />
        <path
            d="M117.098 276.414C127.021 276.414 135.066 268.37 135.066 258.448C135.066 248.526 127.021 240.482 117.098 240.482C107.175 240.482 99.1303 248.526 99.1303 258.448C99.1303 268.37 107.175 276.414 117.098 276.414Z"
            fill="#E2AAAA" />
        <path
            d="M85.1986 324.714L85.0881 309.78C85.0856 304.406 86.9042 299.191 90.2471 294.984C93.5902 290.777 98.2604 287.826 103.496 286.614L103.564 286.598L107.116 281.812L121.552 283.255L124.196 288.662L134.657 294.889L138.683 307.834C140.43 308.998 141.919 310.508 143.057 312.272C144.194 314.036 144.958 316.015 145.298 318.086C146.666 326.819 140.551 335.556 139.824 336.558L137.95 347.111L97.1819 354.304L96.8508 354.346L85.1986 324.714Z"
            fill="#65AAFF" />
        <path
            d="M139.085 255.245C136.988 256.572 134.814 257.771 132.574 258.835C130.298 259.927 127.919 260.788 125.472 261.402C124.771 259.866 123.914 258.406 122.915 257.045C123.172 258.656 123.178 260.299 122.934 261.913C118.877 262.567 114.722 262.226 110.826 260.92L107.442 255.245L107.187 261.578C104.383 262.091 101.59 262.572 98.7868 263.074C98.6195 263.093 98.4523 263.132 98.2949 263.162C96.5539 255.314 99.0228 246.67 104.511 241.436C107.236 238.866 110.635 237.122 114.313 236.408C117.991 235.694 121.795 236.04 125.285 237.404C125.728 237.582 126.18 237.779 126.612 237.985L126.613 237.989L126.616 237.992L126.618 237.994L126.623 237.995C126.878 238.122 127.094 238.427 127.38 238.398C139.655 237.031 140.048 246.551 139.085 255.245Z"
            fill="#2F2E41" />
        <path d="M109.194 539.927L118.185 546.844L149.147 515.46L135.877 505.252L109.194 539.927Z" fill="#E2AAAA" />
        <path
            d="M110.377 533.777L125.243 543.863L120.557 549.952L126.888 569.68C127.201 570.653 127.194 571.702 126.869 572.672C126.544 573.642 125.916 574.483 125.08 575.071C124.242 575.66 123.239 575.965 122.215 575.944C121.193 575.922 120.203 575.573 119.392 574.949L102.472 561.93L104.19 553.664L98.4164 558.81L92.0368 553.902L110.377 533.777Z"
            fill="#2F2E41" />
        <path
            d="M80.0188 501.623L80.0183 501.506L84.2794 494.164L79.9283 484.607L79.7977 460.051L80.5031 456.365C81.4518 451.408 81.1757 446.293 79.699 441.467L79.6195 426.52C79.4667 422.776 85.2677 419.483 83.9148 416.36C71.1282 386.856 96.9721 364.348 97.1466 364.168L97.6747 363.618L100.54 365.789L103.268 365.792L140.072 372.498L140.338 372.992C141.786 375.708 144.58 385.066 144.745 389.3C146.579 391.424 167.473 415.598 169.331 417.278C181.882 428.634 189.067 447.428 192.234 457.621C193.02 460.14 193.178 462.814 192.696 465.407C192.212 468.001 191.102 470.438 189.462 472.506L141.947 524.545L129.16 512.743L154.87 465.898L153.016 461.146C149.689 460.531 146.68 458.783 144.498 456.198L139.292 450.018C137.851 448.313 136.934 446.225 136.655 444.01L133.498 443.629L122.189 431.758L114.343 502.804L112.21 508.416L75.0624 552.083L59.325 542.248L80.0188 501.623Z"
            fill="#2F2E41" />
        <path
            d="M74.3456 196.559C73.6319 197.458 73.1239 198.502 72.8574 199.618C72.5908 200.734 72.5722 201.894 72.8028 203.018C73.0334 204.142 73.5078 205.201 74.1923 206.123C74.8768 207.043 75.7549 207.803 76.7647 208.348L64.9526 243.313L74.5979 280.368L90.151 273.338L80.5535 245.388L87.7339 204.706C88.5367 202.949 88.667 200.958 88.1002 199.111C87.5334 197.266 86.3088 195.691 84.6586 194.687C83.0083 193.682 81.0469 193.319 79.1462 193.663C77.2454 194.009 75.5374 195.038 74.3456 196.559Z"
            fill="#E2AAAA" />
        <path
            d="M88.5822 310.9C88.5822 310.9 84.9292 312.86 82.3887 304.452C80.3549 297.72 66.5135 261.17 66.264 251.411C64.924 251.132 63.7145 250.417 62.8262 249.376C61.9378 248.335 61.421 247.028 61.3572 245.662L81.4602 242.879C84.9878 245.828 83.2198 248.339 81.865 249.533L88.7118 261.13L103.023 292.436L91.2479 309.528L88.5822 310.9Z"
            fill="#65AAFF" />
        <path
            d="M98.7826 263.072C100.847 256.847 104.549 251.292 109.5 246.99C114.451 242.688 120.468 239.797 126.92 238.621C126.947 238.613 127.032 238.579 127.144 238.528C127.212 238.484 127.298 238.442 127.384 238.399C127.127 238.253 126.878 238.124 126.62 237.996H126.617L126.614 237.994L126.613 237.991L126.612 237.988C126.389 237.782 126.167 237.576 125.935 237.379L125.284 237.404C125.284 237.404 102.391 233.78 98.7826 263.072Z"
            fill="#FD6584" />
    </g>
    <g filter="url(#filter2_d_1_123)">
        <path d="M265.381 650.336L254.232 650.335L248.929 607.283L265.383 607.284L265.381 650.336Z" fill="#FFB6B6" />
        <path
            d="M268.224 661.156L232.277 661.154V660.7C232.278 656.984 233.752 653.422 236.376 650.795C238.999 648.167 242.558 646.691 246.269 646.691H246.27L252.836 641.704L265.087 646.692H268.225L268.224 661.156Z"
            fill="#2F2E41" />
        <path d="M445.47 609.624L437.869 617.789L402.796 592.319L414.014 580.268L445.47 609.624Z" fill="#FFB6B6" />
        <path
            d="M455.314 614.917L430.804 641.245L430.471 640.934C427.757 638.401 426.16 634.892 426.029 631.18C425.898 627.467 427.246 623.854 429.776 621.137V621.136L430.609 612.926L442.607 607.354L444.746 605.056L455.314 614.917Z"
            fill="#2F2E41" />
        <path
            d="M428.974 585.427L417.191 610.102L344.831 562.135L334.304 547.775L299.789 500.69L285.758 522.98L275.996 546.281C272.814 548.359 270.133 551.118 268.146 554.359C266.16 557.602 264.917 561.244 264.508 565.025L264.061 569.15L270.229 624.674L246.782 631.883L233.316 557.293L237.718 541.13L242.25 518.443L265.068 446.749H326.129L361.151 521.386L363.712 536.593L373.642 548.003L428.974 585.427Z"
            fill="#2F2E41" />
        <path
            d="M302.078 329.45L312.356 337.286L324.752 341.101C324.752 341.101 329.878 413.274 334.495 417.898C339.113 422.521 334.949 422.645 335.876 428.651C336.804 434.657 339.06 446.968 339.06 446.968C307.89 463.487 281.018 463.931 259.434 444.6C259.158 443.405 259.298 442.15 259.832 441.044C260.365 439.94 261.26 439.051 262.368 438.524C266.384 436.391 258.665 426.43 261.948 424.764C265.23 423.098 260.612 408.652 260.612 408.652L263.642 378.508L261.248 373.688L267.089 344.204L277.223 340.5L281.272 330.734L302.078 329.45Z"
            fill="#3F3D56" />
        <path
            d="M308.517 457.727C308.471 456.424 308.711 455.126 309.219 453.925C309.728 452.725 310.495 451.651 311.463 450.779C312.432 449.906 313.579 449.257 314.826 448.878C316.071 448.498 317.385 448.396 318.675 448.579L333.162 420.389L341.232 434.746L326.239 459.314C325.788 461.464 324.564 463.372 322.801 464.678C321.038 465.984 318.858 466.597 316.674 466.402C314.489 466.206 312.452 465.215 310.949 463.616C309.446 462.018 308.58 459.922 308.517 457.727Z"
            fill="#FFB6B6" />
        <path
            d="M332.912 450.832L363.984 402.617L363.881 402.395C363.764 402.14 356.728 386.927 349.91 372.991C348.86 370.846 347.816 368.73 346.802 366.704C346.364 365.83 345.933 364.974 345.51 364.135C342.647 358.484 340.145 353.813 338.651 351.594C335.348 346.577 330.431 342.841 324.715 341.009L324.571 340.972L324.433 341.029C321.638 342.21 319.327 344.31 317.884 346.982C316.44 349.654 315.949 352.739 316.49 355.728C319.186 370.146 325.191 383.741 334.033 395.437L339.07 402.084L321.565 440.186L332.912 450.832Z"
            fill="#3F3D56" />
        <path
            d="M226.069 266.018C226.925 267.002 227.555 268.162 227.915 269.416C228.274 270.668 228.355 271.986 228.151 273.274C227.947 274.562 227.464 275.79 226.735 276.871C226.006 277.951 225.049 278.86 223.931 279.53L230.408 310.562L215.11 304.498L211.304 275.958C210.304 274.004 210.053 271.751 210.601 269.624C211.15 267.498 212.458 265.648 214.277 264.422C216.097 263.197 218.303 262.682 220.476 262.978C222.649 263.272 224.64 264.354 226.069 266.018Z"
            fill="#FFB6B6" />
        <path
            d="M211.456 286.757L217.642 343.8L217.861 343.908C218.041 343.997 225.88 347.845 235.501 352.429C237.125 353.203 236.892 356.552 238.588 357.354C239.756 357.905 242.843 355.904 244.024 356.456C254.539 361.381 265.174 366.169 269.412 367.466C275.134 369.281 281.303 369.082 286.896 366.902L287.03 366.84L287.101 366.709C288.53 364.03 289.004 360.942 288.445 357.955C287.886 354.97 286.327 352.262 284.027 350.282C272.864 340.781 259.65 334.007 245.425 330.496L237.331 328.507L226.966 287.872L211.456 286.757Z"
            fill="#3F3D56" />
        <path
            d="M291.119 326.219C302.347 326.219 311.45 317.105 311.45 305.862C311.45 294.62 302.347 285.506 291.119 285.506C279.889 285.506 270.787 294.62 270.787 305.862C270.787 317.105 279.889 326.219 291.119 326.219Z"
            fill="#FFB6B6" />
        <path
            d="M270.932 292.222C272.604 287.352 280.928 283.974 294.421 283.504C307.915 283.034 311.338 298.955 311.338 298.955C320.346 306.271 301.718 325.859 300.817 325.153L301.223 321.473C301.894 315.377 304.745 310.621 301.118 304.268L297.637 304.309C293.141 305.174 288.644 306.04 284.148 306.906L289.471 302.213L289.321 301.98C287.057 303.161 284.593 303.911 282.055 304.189C279.193 304.358 276.066 303.217 274.696 300.697C274.33 300.005 274.105 299.245 274.038 298.465C270.179 300.008 268.415 304.77 268.415 304.77C268.415 304.77 269.261 297.092 270.932 292.222Z"
            fill="#2F2E41" />
    </g>
    <defs>
        <filter id="filter0_d_1_123" x="21.6837" y="68.8316" width="363.784" height="181.028"
            filterUnits="userSpaceOnUse" color-interpolation-filters="sRGB">
            <feFlood flood-opacity="0" result="BackgroundImageFix" />
            <feColorMatrix in="SourceAlpha" type="matrix" values="0 0 0 0 0 0 0 0 0 0 0 0 0 0 0 0 0 0 127 0"
                result="hardAlpha" />
            <feOffset dy="4" />
            <feGaussianBlur stdDeviation="5" />
            <feComposite in2="hardAlpha" operator="out" />
            <feColorMatrix type="matrix" values="0 0 0 0 0.808333 0 0 0 0 0.808333 0 0 0 0 0.808333 0 0 0 0.25 0" />
            <feBlend mode="normal" in2="BackgroundImageFix" result="effect1_dropShadow_1_123" />
            <feBlend mode="normal" in="SourceGraphic" in2="effect1_dropShadow_1_123" result="shape" />
        </filter>
        <filter id="filter1_d_1_123" x="16.8489" y="187.537" width="205.705" height="424.972"
            filterUnits="userSpaceOnUse" color-interpolation-filters="sRGB">
            <feFlood flood-opacity="0" result="BackgroundImageFix" />
            <feColorMatrix in="SourceAlpha" type="matrix" values="0 0 0 0 0 0 0 0 0 0 0 0 0 0 0 0 0 0 127 0"
                result="hardAlpha" />
            <feOffset dy="4" />
            <feGaussianBlur stdDeviation="5" />
            <feComposite in2="hardAlpha" operator="out" />
            <feColorMatrix type="matrix" values="0 0 0 0 0.654167 0 0 0 0 0.654167 0 0 0 0 0.654167 0 0 0 0.5 0" />
            <feBlend mode="normal" in2="BackgroundImageFix" result="effect1_dropShadow_1_123" />
            <feBlend mode="normal" in="SourceGraphic" in2="effect1_dropShadow_1_123" result="shape" />
        </filter>
        <filter id="filter2_d_1_123" x="200.317" y="256.896" width="264.997" height="418.259"
            filterUnits="userSpaceOnUse" color-interpolation-filters="sRGB">
            <feFlood flood-opacity="0" result="BackgroundImageFix" />
            <feColorMatrix in="SourceAlpha" type="matrix" values="0 0 0 0 0 0 0 0 0 0 0 0 0 0 0 0 0 0 127 0"
                result="hardAlpha" />
            <feOffset dy="4" />
            <feGaussianBlur stdDeviation="5" />
            <feComposite in2="hardAlpha" operator="out" />
            <feColorMatrix type="matrix" values="0 0 0 0 0.654167 0 0 0 0 0.654167 0 0 0 0 0.654167 0 0 0 0.5 0" />
            <feBlend mode="normal" in2="BackgroundImageFix" result="effect1_dropShadow_1_123" />
            <feBlend mode="normal" in="SourceGraphic" in2="effect1_dropShadow_1_123" result="shape" />
        </filter>
        <linearGradient id="paint0_linear_1_123" x1="38.6207" y1="150.088" x2="69.8978" y2="222.338"
            gradientUnits="userSpaceOnUse">
            <stop stop-color="#A9E0FF" />
            <stop offset="1" stop-color="#65AAFF" />
        </linearGradient>
        <linearGradient id="paint1_linear_1_123" x1="31.2639" y1="185.195" x2="45.4695" y2="218.01"
            gradientUnits="userSpaceOnUse">
            <stop stop-color="#A9E0FF" />
            <stop offset="1" stop-color="#65AAFF" />
        </linearGradient>
        <linearGradient id="paint2_linear_1_123" x1="32.7386" y1="80.2063" x2="56.9202" y2="76.6321"
            gradientUnits="userSpaceOnUse">
            <stop stop-color="#A9E0FF" />
            <stop offset="1" stop-color="#65AAFF" />
        </linearGradient>
        <linearGradient id="paint3_linear_1_123" x1="382.044" y1="168.355" x2="405.389" y2="177.594"
            gradientUnits="userSpaceOnUse">
            <stop stop-color="#A9E0FF" />
            <stop offset="1" stop-color="#65AAFF" />
        </linearGradient>
        <linearGradient id="paint4_linear_1_123" x1="398.539" y1="99.5642" x2="367.262" y2="27.3136"
            gradientUnits="userSpaceOnUse">
            <stop stop-color="#A9E0FF" />
            <stop offset="1" stop-color="#65AAFF" />
        </linearGradient>
        <linearGradient id="paint5_linear_1_123" x1="376.573" y1="104.918" x2="362.368" y2="72.1027"
            gradientUnits="userSpaceOnUse">
            <stop stop-color="#A9E0FF" />
            <stop offset="1" stop-color="#65AAFF" />
        </linearGradient>
    </defs>
</svg>