<svg width="860" height="434" viewBox="0 0 860 434" fill="none" xmlns="http://www.w3.org/2000/svg">
    <g clip-path="url(#clip0_16_455)">
        <path
            d="M776.948 353.008H123.056C114.697 352.999 106.682 349.67 100.772 343.753C94.8607 337.836 91.5359 329.813 91.5265 321.445V73.0569C91.536 64.6888 94.8609 56.6661 100.772 50.7489C106.683 44.8318 114.697 41.5033 123.056 41.4938H776.948C785.307 41.5033 793.321 44.8318 799.232 50.7489C805.143 56.6661 808.468 64.6888 808.477 73.0569V321.445C808.468 329.813 805.143 337.836 799.232 343.753C793.321 349.67 785.307 352.999 776.948 353.008Z"
            fill="white" />
        <path
            d="M776.948 353.008H123.056C114.697 352.999 106.682 349.67 100.772 343.753C94.8607 337.836 91.5359 329.813 91.5265 321.445V73.0569C91.536 64.6888 94.8609 56.6661 100.772 50.7489C106.683 44.8318 114.697 41.5033 123.056 41.4938H776.948C785.307 41.5033 793.321 44.8318 799.232 50.7489C805.143 56.6661 808.468 64.6888 808.477 73.0569V321.445C808.468 329.813 805.143 337.836 799.232 343.753C793.321 349.67 785.307 352.999 776.948 353.008ZM123.056 44.2384C115.421 44.2384 108.099 47.2747 102.7 52.6792C97.3011 58.0837 94.2682 65.4138 94.2682 73.0569V321.445C94.2682 325.229 95.0128 328.977 96.4595 332.473C97.9062 335.97 100.027 339.147 102.7 341.823C105.373 344.499 108.547 346.622 112.039 348.07C115.532 349.518 119.275 350.263 123.056 350.263H776.948C780.728 350.263 784.472 349.518 787.964 348.07C791.457 346.622 794.631 344.499 797.304 341.823C799.977 339.147 802.097 335.97 803.544 332.473C804.991 328.977 805.735 325.229 805.735 321.445V227.789C805.735 179.109 786.418 132.422 752.032 97.9993C717.646 63.5768 671.01 44.2384 622.381 44.2384H123.056Z"
            fill="#E6E6E6" />
        <path
            d="M71.3171 405.886C71.5845 404.046 69.6594 402.243 67.0173 401.858C64.3753 401.473 62.0166 402.652 61.7492 404.492C61.4818 406.332 63.4069 408.136 66.0489 408.521C68.691 408.906 71.0496 407.726 71.3171 405.886Z"
            fill="white" />
        <path
            d="M102.774 402.813C103.041 400.973 101.116 399.17 98.4743 398.785C95.8322 398.4 93.4735 399.58 93.2061 401.42C92.9387 403.26 94.8638 405.063 97.5058 405.448C100.148 405.833 102.507 404.653 102.774 402.813Z"
            fill="#3F3D56" />
        <path
            d="M62.7033 380.392C62.9707 378.552 61.0457 376.749 58.4036 376.364C55.7615 375.979 53.4029 377.158 53.1354 378.998C52.868 380.838 54.7931 382.642 57.4352 383.027C60.0772 383.412 62.4359 382.232 62.7033 380.392Z"
            fill="#FF6584" />
        <path
            d="M49.0344 369.949C49.0472 368.26 48.106 366.884 46.9322 366.875C45.7584 366.866 44.7965 368.228 44.7837 369.917C44.771 371.606 45.7122 372.983 46.886 372.992C48.0598 373 49.0216 371.638 49.0344 369.949Z"
            fill="#E6E6E6" />
        <path
            d="M44.399 350.499C44.4118 348.809 43.4706 347.433 42.2968 347.424C41.123 347.415 40.1611 348.777 40.1483 350.466C40.1356 352.156 41.0768 353.532 42.2506 353.541C43.4244 353.55 44.3863 352.188 44.399 350.499Z"
            fill="#3F3D56" />
        <path
            d="M80.4452 384.73C80.4579 383.041 79.5167 381.665 78.3429 381.656C77.1691 381.647 76.2072 383.009 76.1945 384.698C76.1817 386.387 77.1229 387.764 78.2967 387.773C79.4705 387.782 80.4324 386.42 80.4452 384.73Z"
            fill="#E6E6E6" />
        <path
            d="M65.2439 392.328C65.2566 390.639 64.3154 389.263 63.1416 389.254C61.9678 389.245 61.006 390.607 60.9932 392.296C60.9804 393.985 61.9216 395.362 63.0954 395.371C64.2692 395.38 65.2311 394.017 65.2439 392.328Z"
            fill="#FF6584" />
        <path
            d="M86.4047 406.371C86.4175 404.682 85.4762 403.306 84.3024 403.297C83.1286 403.288 82.1667 404.65 82.154 406.339C82.1412 408.028 83.0824 409.405 84.2562 409.414C85.43 409.423 86.3919 408.061 86.4047 406.371Z"
            fill="#3F3D56" />
        <path
            d="M831.282 9.22457C831.863 6.92717 829.66 4.38633 826.361 3.54939C823.062 2.71246 819.917 3.89636 819.335 6.19376C818.753 8.49117 820.956 11.0321 824.255 11.869C827.554 12.7059 830.7 11.522 831.282 9.22457Z"
            fill="white" />
        <path
            d="M790.995 8.96469C791.576 6.66728 789.373 4.12638 786.074 3.28945C782.775 2.45251 779.63 3.63648 779.048 5.93388C778.466 8.23129 780.669 10.7721 783.968 11.6091C787.267 12.446 790.413 11.2621 790.995 8.96469Z"
            fill="#3F3D56" />
        <path
            d="M838.842 42.6847C839.423 40.3873 837.221 37.8465 833.922 37.0096C830.623 36.1726 827.477 37.3565 826.895 39.6539C826.314 41.9513 828.516 44.4923 831.815 45.3292C835.114 46.1661 838.26 44.9822 838.842 42.6847Z"
            fill="#FF6584" />
        <path
            d="M848.233 55.3017C848.472 53.1619 847.46 51.2923 845.973 51.126C844.486 50.9597 843.087 52.5595 842.848 54.6994C842.61 56.8392 843.621 58.7088 845.108 58.8751C846.595 59.0414 847.995 57.4416 848.233 55.3017Z"
            fill="#E6E6E6" />
        <path
            d="M851.552 80.57C851.79 78.4301 850.779 76.5605 849.292 76.3942C847.805 76.2279 846.405 77.8277 846.167 79.9676C845.928 82.1075 846.94 83.977 848.427 84.1433C849.914 84.3097 851.313 82.7098 851.552 80.57Z"
            fill="#3F3D56" />
        <path
            d="M810.358 32.412C810.597 30.2721 809.585 28.4026 808.098 28.2363C806.611 28.07 805.212 29.6698 804.973 31.8097C804.734 33.9495 805.746 35.819 807.233 35.9854C808.72 36.1517 810.119 34.5519 810.358 32.412Z"
            fill="#E6E6E6" />
        <path
            d="M830.632 24.7873C830.871 22.6474 829.859 20.7779 828.372 20.6116C826.885 20.4452 825.486 22.0451 825.247 24.1849C825.009 26.3248 826.02 28.1943 827.507 28.3607C828.994 28.527 830.393 26.9271 830.632 24.7873Z"
            fill="#FF6584" />
        <path
            d="M805.655 4.18757C805.894 2.04772 804.882 0.178193 803.395 0.0118609C801.908 -0.154471 800.509 1.44538 800.27 3.58523C800.032 5.72509 801.043 7.59462 802.53 7.76095C804.017 7.92728 805.416 6.32743 805.655 4.18757Z"
            fill="#3F3D56" />
        <path
            d="M353.071 192.196C353.106 217.054 343.934 241.042 327.326 259.522V259.535C324.978 262.149 322.498 264.641 319.896 267.001C317.234 269.415 314.442 271.682 311.534 273.794C309.505 275.276 307.421 276.675 305.283 277.993C302.747 279.571 300.138 281.03 297.455 282.371C295.468 283.372 293.439 284.306 291.369 285.17C279.013 290.368 265.744 293.042 252.341 293.033C244.772 293.042 237.225 292.195 229.846 290.508C226.433 289.732 223.065 288.769 219.756 287.626C218.481 287.201 217.206 286.735 215.945 286.241C208.298 283.281 201.046 279.386 194.354 274.644C180.21 264.675 168.869 251.228 161.424 235.598C153.978 219.968 150.679 202.681 151.843 185.404C153.008 168.127 158.598 151.441 168.074 136.954C177.551 122.467 190.594 110.668 205.948 102.692C221.302 94.7158 238.449 90.8326 255.737 91.4161C273.025 91.9996 289.872 97.0303 304.654 106.023C319.437 115.016 331.656 127.669 340.136 142.762C348.616 157.855 353.071 174.88 353.071 192.196Z"
            fill="#F2F2F2" />
        <path
            d="M654.546 117.238H480.449C478.997 117.236 477.604 116.657 476.577 115.628C475.551 114.599 474.974 113.204 474.974 111.749C474.974 110.295 475.551 108.9 476.577 107.87C477.604 106.841 478.997 106.262 480.449 106.26H654.546C656.001 106.26 657.395 106.838 658.424 107.868C659.452 108.897 660.03 110.293 660.03 111.749C660.03 113.205 659.452 114.601 658.424 115.631C657.395 116.66 656.001 117.238 654.546 117.238Z"
            fill="#65AAFF" />
        <path
            d="M654.546 191.343H480.449C478.997 191.341 477.604 190.762 476.577 189.732C475.551 188.703 474.974 187.308 474.974 185.854C474.974 184.399 475.551 183.004 476.577 181.975C477.604 180.946 478.997 180.367 480.449 180.365H654.546C655.999 180.367 657.392 180.946 658.419 181.975C659.445 183.004 660.022 184.399 660.022 185.854C660.022 187.308 659.445 188.703 658.419 189.732C657.392 190.762 655.999 191.341 654.546 191.343Z"
            fill="#E6E6E6" />
        <path
            d="M654.546 265.448H480.449C478.997 265.446 477.604 264.866 476.577 263.837C475.551 262.808 474.974 261.413 474.974 259.959C474.974 258.504 475.551 257.109 476.577 256.08C477.604 255.051 478.997 254.471 480.449 254.469H654.546C656.001 254.469 657.395 255.048 658.424 256.077C659.452 257.106 660.03 258.503 660.03 259.959C660.03 261.414 659.452 262.811 658.424 263.84C657.395 264.869 656.001 265.448 654.546 265.448Z"
            fill="#E6E6E6" />
        <path
            d="M219.294 429.207C199.64 403.037 188.28 373.772 187.908 340.407C187.275 338.609 187.38 336.633 188.2 334.912C189.021 333.192 190.489 331.867 192.284 331.229L259.276 307.5C261.072 306.866 263.046 306.972 264.765 307.793C266.484 308.614 267.807 310.084 268.444 311.881L299.83 400.681C300.464 402.479 300.358 404.455 299.538 406.176C298.718 407.896 297.249 409.221 295.455 409.859L228.462 433.588C226.666 434.222 224.692 434.116 222.974 433.295C221.255 432.474 219.932 431.004 219.294 429.207Z"
            fill="#E6E6E6" />
        <path
            d="M214.953 400.566C203.132 388.601 198.072 367.261 194.775 343.477C194.182 341.793 194.28 339.942 195.049 338.331C195.817 336.72 197.192 335.479 198.873 334.882L256.447 314.488C258.129 313.895 259.978 313.993 261.588 314.762C263.198 315.531 264.437 316.908 265.034 318.591L292.963 397.611C293.556 399.295 293.458 401.146 292.689 402.757C291.921 404.368 290.546 405.609 288.865 406.206L253.199 418.839C245.706 421.484 237.471 421.045 230.301 417.619C223.131 414.193 217.612 408.06 214.953 400.566Z"
            fill="white" />
        <path
            d="M265.804 361.159L220.956 377.185C220.602 377.311 220.228 377.367 219.853 377.348C219.478 377.329 219.111 377.237 218.772 377.076C218.432 376.915 218.128 376.689 217.877 376.411C217.625 376.132 217.43 375.807 217.304 375.453C217.178 375.099 217.123 374.724 217.141 374.349C217.16 373.974 217.253 373.606 217.413 373.267C217.574 372.927 217.8 372.623 218.078 372.371C218.356 372.119 218.681 371.924 219.035 371.798L263.883 355.772C264.597 355.517 265.383 355.556 266.067 355.881C266.752 356.206 267.28 356.789 267.535 357.504C267.789 358.218 267.75 359.005 267.426 359.69C267.101 360.376 266.518 360.904 265.804 361.159Z"
            fill="#65AAFF" />
        <path
            d="M225.555 358.887L215.688 362.412C215.335 362.539 214.96 362.595 214.585 362.576C214.21 362.558 213.842 362.466 213.503 362.305C213.163 362.144 212.859 361.918 212.607 361.639C212.355 361.361 212.16 361.035 212.034 360.681C211.908 360.327 211.852 359.952 211.871 359.576C211.89 359.201 211.983 358.833 212.144 358.493C212.305 358.154 212.531 357.849 212.809 357.597C213.088 357.345 213.413 357.151 213.767 357.025L223.634 353.499C223.987 353.372 224.362 353.316 224.737 353.335C225.112 353.353 225.48 353.446 225.819 353.606C226.159 353.767 226.463 353.993 226.715 354.272C226.967 354.551 227.162 354.876 227.288 355.23C227.414 355.584 227.47 355.96 227.451 356.335C227.432 356.71 227.339 357.078 227.178 357.418C227.017 357.758 226.791 358.062 226.513 358.314C226.234 358.566 225.909 358.761 225.555 358.887Z"
            fill="#65AAFF" />
        <path
            d="M274.25 384.845L229.401 400.87C228.688 401.125 227.903 401.085 227.218 400.76C226.534 400.435 226.007 399.851 225.752 399.137C225.498 398.423 225.537 397.637 225.861 396.952C226.185 396.267 226.767 395.738 227.48 395.483L272.329 379.457C273.042 379.203 273.827 379.243 274.511 379.568C275.196 379.893 275.723 380.476 275.977 381.19C276.232 381.904 276.193 382.69 275.869 383.375C275.545 384.061 274.963 384.589 274.25 384.845Z"
            fill="#65AAFF" />
        <path
            d="M270.027 373.002L225.179 389.028C224.465 389.283 223.679 389.244 222.994 388.919C222.31 388.594 221.782 388.01 221.527 387.296C221.272 386.581 221.312 385.795 221.636 385.109C221.961 384.424 222.544 383.895 223.258 383.64L268.106 367.614C268.46 367.488 268.835 367.432 269.21 367.45C269.585 367.469 269.952 367.561 270.292 367.722C270.631 367.883 270.935 368.109 271.187 368.387C271.439 368.666 271.634 368.992 271.76 369.346C271.887 369.7 271.942 370.075 271.923 370.45C271.904 370.826 271.812 371.194 271.651 371.533C271.49 371.873 271.264 372.177 270.985 372.429C270.706 372.681 270.381 372.876 270.027 373.002Z"
            fill="#65AAFF" />
        <path
            d="M229.302 146.575C230.763 158.371 238.928 168.097 250.801 168.097C256.503 168.097 261.971 165.83 266.003 161.794C270.035 157.758 272.3 152.283 272.3 146.575C272.3 134.689 262.624 126.152 250.801 125.053C238.257 123.887 227.427 131.431 229.302 146.575Z"
            fill="#2F2E41" />
        <path
            d="M269.518 291.565C256.353 293.831 242.871 293.472 229.846 290.508C236.028 287.091 254.781 289.191 269.518 291.565Z"
            fill="#2F2E41" />
        <path
            d="M185.841 329.422L196.168 304.437L204.304 308.963L199.391 334.378C199.883 335.988 199.916 337.704 199.488 339.332C199.059 340.96 198.186 342.436 196.965 343.595C195.744 344.753 194.225 345.548 192.578 345.889C190.931 346.231 189.221 346.105 187.641 345.528C186.062 344.95 184.674 343.942 183.635 342.618C182.596 341.294 181.946 339.706 181.759 338.033C181.572 336.359 181.855 334.667 182.576 333.146C183.297 331.625 184.427 330.335 185.841 329.422Z"
            fill="#FFB6B6" />
        <path
            d="M292.671 261.813V261.827C292.301 270.528 291.794 278.803 291.369 285.17C279.013 290.368 265.744 293.042 252.341 293.033C244.772 293.042 237.225 292.195 229.846 290.508C226.433 289.732 223.065 288.77 219.756 287.627C220.217 287.329 220.715 287.094 221.237 286.927C226.172 285.252 221.291 283.729 221.333 282.137C221.483 276.319 223.087 269.334 225.157 262.637L215.945 286.241L211.147 298.509C211.147 298.509 211.312 309.103 208.268 305.865C205.212 302.626 205.431 313.11 205.431 313.11C204.481 313.788 203.663 314.635 203.018 315.608C202.747 316.046 202.645 316.568 202.73 317.076V317.09C202.868 317.489 203.139 317.828 203.498 318.051C205.568 319.45 202.593 323.156 201.277 324.624C200.921 325.022 200.688 325.255 200.688 325.255L188.035 324.35V324.103C188.09 322.607 188.432 314.73 190.393 312.85C192.545 310.777 191.489 307.498 191.489 307.498C191.489 307.498 197.11 302.516 193.34 298.468C191.832 296.835 192.504 287.16 194.354 274.645C198.398 247.034 208.09 205.59 212.285 206.18C213.149 201.976 215.157 198.094 218.086 194.96C221.016 191.826 224.753 189.564 228.886 188.422L242.553 184.662L244.993 175.015H264.24L267.585 181.355L281.609 187.695L281.787 187.777L282.225 187.969L282.39 188.491C282.39 188.491 282.376 188.505 282.39 188.505L290.19 213.028C293.699 217.062 293.562 240.639 292.671 261.813Z"
            fill="#3F3D56" />
        <path
            d="M325.445 311.229L312.413 287.546L321.026 284.014L337.777 303.735C339.341 304.356 340.7 305.402 341.702 306.754C342.704 308.107 343.31 309.712 343.45 311.39C343.591 313.068 343.262 314.752 342.499 316.253C341.736 317.753 340.57 319.011 339.132 319.885C337.694 320.759 336.041 321.214 334.359 321.198C332.678 321.183 331.033 320.699 329.611 319.8C328.189 318.9 327.046 317.622 326.31 316.107C325.574 314.593 325.275 312.904 325.445 311.229Z"
            fill="#FFB6B6" />
        <path
            d="M281.611 187.506C283.929 191.676 305.13 202.4 301.456 213.167C301.456 213.167 321.374 275.548 323.964 275.141C326.554 274.734 329.082 281.177 329.082 281.177C329.082 281.177 328.533 285.383 330.148 283.635C331.764 281.888 331.377 286.469 331.377 286.469C331.377 286.469 330.603 290.512 332.654 289.413C334.705 288.314 332.008 296.052 332.008 296.052L319.681 301.862L317.339 298.372C317.339 298.372 312.334 297.418 314.689 296.662C317.044 295.906 312.474 293.362 312.474 293.362C312.474 293.362 307.693 290.109 308.359 284.722C309.026 279.334 295.952 268.744 295.952 268.744C286.965 250.981 282.048 232.744 282.066 213.931L281.611 187.506Z"
            fill="#3F3D56" />
        <path
            d="M253.178 169.375C263.707 169.375 272.242 160.831 272.242 150.291C272.242 139.75 263.707 131.206 253.178 131.206C242.649 131.206 234.113 139.75 234.113 150.291C234.113 160.831 242.649 169.375 253.178 169.375Z"
            fill="#FFB6B6" />
        <path
            d="M233.436 152.37C234.04 156.517 237.571 162.303 236.744 162.303C235.917 162.303 230.038 145.207 235.917 144.092C240.182 143.283 241.135 143.993 245.12 142.263L244.558 142.792C247.196 144.713 250.867 143.529 253.877 142.279C256.895 141.038 260.558 139.854 263.204 141.766C264.867 142.966 265.569 145.052 266.603 146.824C267.637 148.603 269.547 150.284 271.515 149.737C272.282 149.441 272.935 148.908 273.381 148.217C273.826 147.525 274.042 146.71 273.995 145.888C273.987 144.249 271.855 142.69 272.573 141.22C274.701 136.862 272.787 133.892 268.149 131.841C266.462 131.584 264.776 131.322 263.089 131.055C263.973 129.829 265.044 128.751 266.264 127.859C265.749 126.537 264.858 125.394 263.701 124.573C262.271 123.908 260.678 123.678 259.12 123.911C255.63 124.093 252.143 124.275 248.659 124.457C246.065 124.411 243.489 124.913 241.102 125.931C238.224 127.412 236.339 130.301 234.966 133.24C231.89 139.846 232.378 145.16 233.436 152.37Z"
            fill="#2F2E41" />
        <path
            d="M710.338 139.852H423.632C423.316 139.852 423.013 139.727 422.79 139.503C422.567 139.28 422.441 138.976 422.441 138.66C422.441 138.344 422.567 138.041 422.79 137.818C423.013 137.594 423.316 137.469 423.632 137.469H710.338C710.654 137.469 710.957 137.594 711.18 137.818C711.403 138.041 711.528 138.344 711.528 138.66C711.528 138.976 711.403 139.28 711.18 139.503C710.957 139.727 710.654 139.852 710.338 139.852Z"
            fill="#E6E6E6" />
        <path
            d="M710.338 213.735H423.632C423.316 213.735 423.013 213.61 422.79 213.386C422.567 213.163 422.441 212.86 422.441 212.544C422.441 212.228 422.567 211.924 422.79 211.701C423.013 211.477 423.316 211.352 423.632 211.352H710.338C710.654 211.352 710.957 211.477 711.18 211.701C711.403 211.924 711.528 212.228 711.528 212.544C711.528 212.86 711.403 213.163 711.18 213.386C710.957 213.61 710.654 213.735 710.338 213.735Z"
            fill="#E6E6E6" />
        <path
            d="M710.338 287.618H423.632C423.316 287.618 423.013 287.492 422.79 287.269C422.567 287.045 422.441 286.742 422.441 286.426C422.441 286.11 422.567 285.807 422.79 285.584C423.013 285.36 423.316 285.235 423.632 285.235H710.338C710.654 285.235 710.957 285.36 711.18 285.584C711.403 285.807 711.528 286.11 711.528 286.426C711.528 286.742 711.403 287.045 711.18 287.269C710.957 287.492 710.654 287.618 710.338 287.618Z"
            fill="#E6E6E6" />
        <path
            d="M753.012 282.894C742.516 282.894 732.365 279.141 724.388 272.313C721.727 270.032 718.892 266.068 715.961 260.531C714.091 256.964 713.043 253.023 712.896 248.997C712.748 244.972 713.504 240.964 715.107 237.269C713.562 238.844 711.852 240.248 710.007 241.457L709.075 242.079L709.021 240.959C708.985 240.231 708.968 239.506 708.968 238.803C708.968 234.66 712.097 230.457 710.654 226.628C704.57 210.49 685.275 194.452 713.24 169.476C715.827 167.166 712.371 162.547 712.371 159.051C712.371 124.793 760.737 65.5261 774.445 96.9225C791.351 135.642 820.476 131.501 833.379 139.498L833.566 140.064L833.015 140.287C830.191 141.475 827.216 142.267 824.176 142.641C827.417 143.302 830.725 143.58 834.031 143.467L834.544 143.449L834.669 143.948C835.899 148.888 836.52 153.96 836.519 159.051L836.517 159.601C836.506 163.468 837.309 167.294 838.873 170.829C840.438 174.365 842.729 177.531 845.598 180.12C850.129 184.256 853.75 189.292 856.23 194.906C858.71 200.521 859.993 206.591 860 212.729C860 219.992 855.069 229.525 850.933 236.244C849.884 237.955 848.462 239.407 846.774 240.489C845.085 241.572 843.173 242.258 841.182 242.496C839.296 242.734 837.381 242.554 835.571 241.969C833.762 241.384 832.104 240.408 830.713 239.11C832.671 243.051 835.223 246.667 838.278 249.832L838.843 250.414L838.142 250.823C831.408 254.754 823.751 256.824 815.956 256.821L815.499 256.82C809.784 256.761 804.113 257.844 798.821 260.006C793.529 262.169 788.721 265.367 784.679 269.413C780.563 273.657 775.642 277.036 770.204 279.351C764.766 281.666 758.921 282.871 753.012 282.894Z"
            fill="#E6E6E6" />
        <path
            d="M737.859 352.719C737.668 352.719 737.484 352.65 737.34 352.524C737.197 352.399 737.103 352.227 737.076 352.038C735.004 333.547 734.881 314.89 736.706 296.374C739.44 267.165 748.22 225.092 774.52 190.539C774.583 190.456 774.662 190.386 774.752 190.334C774.842 190.282 774.941 190.248 775.044 190.234C775.147 190.22 775.252 190.226 775.353 190.253C775.453 190.28 775.548 190.326 775.63 190.389C775.713 190.452 775.783 190.531 775.835 190.621C775.887 190.711 775.921 190.81 775.935 190.913C775.949 191.017 775.943 191.122 775.916 191.222C775.89 191.323 775.843 191.417 775.78 191.5C749.707 225.755 740.998 267.519 738.284 296.522C736.468 314.915 736.589 333.447 738.644 351.814C738.66 351.927 738.652 352.041 738.619 352.15C738.587 352.259 738.532 352.36 738.458 352.446C738.383 352.531 738.291 352.6 738.188 352.647C738.085 352.694 737.972 352.719 737.859 352.719Z"
            fill="#3F3D56" />
        <path
            d="M759.322 239.278C759.154 239.278 758.991 239.225 758.856 239.127C758.721 239.028 758.62 238.89 758.568 238.73C758.516 238.571 758.516 238.4 758.568 238.24C758.619 238.081 758.72 237.942 758.855 237.844C766.35 232.765 774.445 228.64 782.956 225.562C796.253 220.688 816.473 216.27 837.289 222.903C837.388 222.934 837.48 222.985 837.56 223.052C837.639 223.119 837.705 223.201 837.753 223.294C837.8 223.386 837.829 223.487 837.838 223.591C837.847 223.695 837.835 223.799 837.804 223.899C837.772 223.998 837.721 224.09 837.654 224.169C837.587 224.249 837.505 224.315 837.413 224.362C837.32 224.41 837.22 224.439 837.116 224.448C837.012 224.457 836.908 224.445 836.809 224.414C816.419 217.918 796.566 222.263 783.501 227.051C775.127 230.076 767.161 234.133 759.787 239.126C759.652 239.225 759.489 239.278 759.322 239.278Z"
            fill="#3F3D56" />
        <path
            d="M723.069 148.89C723.057 148.723 723.098 148.556 723.186 148.414C723.275 148.272 723.406 148.161 723.561 148.098C723.715 148.035 723.886 148.022 724.049 148.062C724.211 148.102 724.357 148.193 724.465 148.321C730.064 155.438 734.757 163.224 738.437 171.501C744.25 184.426 750.108 204.297 744.999 225.559C744.975 225.66 744.931 225.756 744.87 225.84C744.809 225.925 744.732 225.997 744.643 226.051C744.555 226.106 744.456 226.142 744.353 226.159C744.25 226.175 744.145 226.171 744.044 226.146C743.942 226.122 743.847 226.078 743.763 226.016C743.678 225.955 743.607 225.878 743.553 225.789C743.498 225.7 743.462 225.601 743.446 225.498C743.43 225.395 743.435 225.289 743.459 225.188C748.463 204.362 742.704 184.852 736.993 172.152C733.375 164.008 728.76 156.346 723.254 149.343C723.146 149.215 723.081 149.057 723.069 148.89Z"
            fill="#3F3D56" />
        <path
            d="M75.3212 267.031C71.2791 262.985 66.471 259.787 61.1787 257.624C55.8864 255.462 50.2163 254.378 44.5004 254.437L44.0439 254.439C36.2485 254.442 28.5921 252.372 21.858 248.441L21.1572 248.032L21.7216 247.45C24.7772 244.285 27.3286 240.669 29.2864 236.728C27.8959 238.026 26.2375 239.002 24.4284 239.587C22.6194 240.172 20.704 240.352 18.8179 240.114C16.8265 239.876 14.9148 239.19 13.2261 238.107C11.5374 237.025 10.1155 235.573 9.06719 233.862C4.93073 227.143 0 217.61 0 210.347C0.00643738 204.208 1.29038 198.138 3.77001 192.524C6.24964 186.91 9.87056 181.874 14.402 177.738C17.2707 175.148 19.5621 171.983 21.1268 168.447C22.6914 164.912 23.4942 161.086 23.4827 157.219L23.4805 156.669C23.4797 151.578 24.1012 146.506 25.331 141.566L25.4559 141.067L25.9686 141.085C29.2747 141.198 32.5826 140.92 35.8239 140.259C32.7835 139.885 29.8092 139.093 26.9853 137.905L26.4338 137.682L26.621 137.116C39.5239 129.119 68.6494 133.26 85.5547 94.5404C99.2626 63.144 147.629 122.411 147.629 156.669C147.629 160.164 144.173 164.784 146.76 167.094C174.725 192.07 155.43 208.108 149.346 224.246C147.903 228.075 151.032 232.278 151.032 236.421C151.032 237.123 151.014 237.849 150.979 238.577L150.925 239.696L149.993 239.075C148.148 237.866 146.438 236.462 144.892 234.887C146.496 238.582 147.252 242.589 147.104 246.615C146.957 250.641 145.909 254.582 144.039 258.149C141.108 263.686 138.273 267.65 135.612 269.93C127.087 277.233 116.098 281 104.891 280.461C93.6847 279.922 83.107 275.118 75.3212 267.031Z"
            fill="#E6E6E6" />
        <path
            d="M122.141 350.337C122.332 350.336 122.516 350.267 122.66 350.142C122.803 350.017 122.897 349.844 122.924 349.656C124.995 331.165 125.119 312.508 123.294 293.992C120.56 264.782 111.78 222.71 85.4796 188.157C85.4166 188.074 85.3379 188.004 85.248 187.952C85.1581 187.9 85.0587 187.865 84.9556 187.852C84.8525 187.838 84.7477 187.844 84.6471 187.871C84.5466 187.897 84.4522 187.944 84.3695 188.007C84.2867 188.07 84.2172 188.149 84.1649 188.239C84.1126 188.329 84.0785 188.428 84.0646 188.531C84.0507 188.634 84.0572 188.739 84.0838 188.84C84.1104 188.941 84.1565 189.035 84.2196 189.118C110.293 223.373 119.002 265.137 121.716 294.14C123.532 312.532 123.411 331.065 121.356 349.432C121.34 349.545 121.348 349.659 121.381 349.768C121.413 349.877 121.468 349.978 121.542 350.064C121.617 350.149 121.709 350.218 121.812 350.265C121.915 350.312 122.028 350.337 122.141 350.337Z"
            fill="#3F3D56" />
        <path
            d="M100.678 236.896C100.846 236.896 101.009 236.843 101.144 236.745C101.279 236.646 101.38 236.508 101.432 236.348C101.484 236.189 101.484 236.017 101.432 235.858C101.381 235.699 101.28 235.56 101.145 235.461C93.6504 230.383 85.5547 226.258 77.0436 223.18C63.7467 218.306 43.5268 213.888 22.7108 220.521C22.6116 220.552 22.5197 220.603 22.4402 220.67C22.3607 220.737 22.2952 220.819 22.2475 220.912C22.1997 221.004 22.1706 221.105 22.1618 221.209C22.153 221.313 22.1647 221.417 22.1962 221.516C22.2278 221.616 22.2785 221.708 22.3456 221.787C22.4127 221.867 22.4947 221.932 22.5871 221.98C22.6795 222.028 22.7804 222.057 22.884 222.066C22.9877 222.075 23.092 222.063 23.1911 222.032C43.5807 215.536 63.4341 219.881 76.4989 224.669C84.8732 227.694 92.8391 231.751 100.213 236.744C100.348 236.843 100.511 236.896 100.678 236.896Z"
            fill="#3F3D56" />
        <path
            d="M136.931 146.508C136.943 146.341 136.902 146.174 136.814 146.032C136.725 145.889 136.594 145.779 136.44 145.716C136.285 145.652 136.114 145.64 135.951 145.68C135.789 145.72 135.643 145.811 135.535 145.939C129.936 153.056 125.243 160.842 121.563 169.118C115.75 182.044 109.892 201.915 115.001 223.177C115.025 223.278 115.069 223.374 115.13 223.458C115.191 223.543 115.268 223.615 115.357 223.669C115.445 223.724 115.544 223.76 115.647 223.777C115.75 223.793 115.855 223.789 115.956 223.764C116.058 223.74 116.153 223.696 116.237 223.634C116.322 223.573 116.393 223.496 116.447 223.407C116.502 223.317 116.538 223.219 116.554 223.116C116.57 223.012 116.565 222.907 116.541 222.806C111.537 201.98 117.296 182.47 123.007 169.77C126.625 161.626 131.24 153.964 136.746 146.961C136.854 146.833 136.919 146.675 136.931 146.508Z"
            fill="#3F3D56" />
    </g>
    <defs>
        <clipPath id="clip0_16_455">
            <rect width="860" height="434" fill="white" />
        </clipPath>
    </defs>
</svg>