<svg width="525" height="350" viewBox="0 0 525 350" fill="none" xmlns="http://www.w3.org/2000/svg">
    <g clip-path="url(#clip0_36_157)">
        <path d="M89.8739 334.31L97.7832 336.452L109.811 306.958L98.1369 303.795L89.8739 334.31Z" fill="#FFB6B6" />
        <path
            d="M87.3599 342.487L111.684 349.077L111.767 348.769C112.447 346.258 112.102 343.579 110.808 341.322C109.513 339.066 107.375 337.416 104.864 336.735L104.864 336.735L101.334 332.16L92.1309 333.286L90.0075 332.711L87.3599 342.487Z"
            fill="#2F2E41" />
        <path d="M144.489 341.175L152.683 341.174L156.582 309.56L144.487 309.56L144.489 341.175Z" fill="#FFB6B6" />
        <path
            d="M144.2 349.725L169.401 349.724V349.405C169.401 346.803 168.367 344.308 166.528 342.468C164.688 340.629 162.193 339.595 159.592 339.595H159.591L154.988 336.102L146.4 339.595L144.2 339.595L144.2 349.725Z"
            fill="#2F2E41" />
        <path
            d="M147.988 158.878L158.985 314.668L141.275 316.237L116.567 200.779L119.305 267.582L109.499 320.124L94.5078 312.874L94.7568 258.165L75.0756 169.756L80.3139 158.878H147.988Z"
            fill="#2F2E41" />
        <path
            d="M77.587 178.262L77.4771 178.108C71.6078 169.889 80.4353 150.14 81.7667 147.277C80.1857 146.764 78.8314 145.719 77.9346 144.319C77.0377 142.92 76.6536 141.252 76.8478 139.601L77.4217 134.722L78.02 129.935L73.734 125.649L73.722 125.542L71.2555 103.957L67.6693 89.62C66.318 84.2002 66.4332 78.5185 68.0029 73.1579C69.5726 67.7974 72.5404 62.9511 76.6016 59.1168L84.8911 57.8003L94.9655 48.092H111.212L116.782 53.4149C127.181 55.239 128.967 54.6434 137.899 65.3638L133.841 98.6938L132.828 103.279L132.831 109.498L135.405 112.359C136.333 113.39 137.006 114.623 137.373 115.96C137.74 117.297 137.789 118.701 137.517 120.061L137.179 121.754C139.833 122.892 142.367 143.114 142.972 145.939L143.876 150.159C144.65 151.179 149.755 157.988 149.755 159.849C149.755 160.129 149.549 160.399 149.106 160.699C145.627 163.055 131.755 179.77 123.244 176.364C114.178 172.738 78.1374 178.177 77.7743 178.233L77.587 178.262Z"
            fill="#3F3D56" />
        <path
            d="M75.4044 139.504C75.4044 139.504 79.5764 115.923 75.3733 107.054L58.6997 108.245L61.2372 141.887L75.813 179.241C75.5906 180.391 75.6765 181.581 76.0622 182.688C76.4478 183.794 77.1194 184.78 78.0088 185.543C78.8981 186.306 79.9736 186.821 81.126 187.034C82.2784 187.247 83.4668 187.152 84.5703 186.757C85.6739 186.362 86.6535 185.683 87.4095 184.787C88.1656 183.892 88.6712 182.812 88.8752 181.658C89.0791 180.503 88.974 179.316 88.5707 178.215C88.1673 177.115 87.4799 176.14 86.5783 175.391L75.4044 139.504Z"
            fill="#FFB6B6" />
        <path
            d="M58.6998 94.5471L59.7317 83.3078C60.1201 79.0778 61.3408 74.9663 63.3237 71.2098C65.3066 67.4533 68.0125 64.126 71.2858 61.4193C73.3196 59.7499 75.7797 58.6827 78.3881 58.3384C80.9965 57.994 83.6492 58.3862 86.0464 59.4705C89.2861 60.9623 91.8386 63.6287 93.1878 66.9308C94.537 70.2329 94.5821 73.9241 93.3141 77.2582C89.4604 87.3666 90.852 98.0565 83.3377 99.3598L84.154 103.244L76.7656 127.36L55.7223 124.922L58.6998 94.5471Z"
            fill="#3F3D56" />
        <path
            d="M141.341 171.487C140.604 172.398 140.121 173.488 139.941 174.647C139.761 175.805 139.89 176.99 140.317 178.082C140.743 179.174 141.45 180.134 142.367 180.864C143.284 181.594 144.378 182.068 145.537 182.239C146.697 182.41 147.881 182.27 148.969 181.835C150.057 181.4 151.011 180.685 151.734 179.762C152.456 178.839 152.922 177.742 153.083 176.581C153.244 175.42 153.096 174.237 152.652 173.152L159.627 133.666L155.524 100.179L138.94 102.279C136.556 111.799 145.268 134.106 145.268 134.106L141.341 171.487Z"
            fill="#FFB6B6" />
        <path
            d="M161.711 115.948L141.553 122.463L133.792 110.354L133.832 106.385C126.208 106.579 121.269 85.7335 115.51 76.5764C113.613 73.5554 112.934 69.9269 113.61 66.4244C114.286 62.922 116.267 59.8069 119.151 57.7091C121.29 56.176 123.814 55.2716 126.44 55.0981C129.065 54.9246 131.686 55.4889 134.008 56.7273C137.748 58.7401 141.053 61.4726 143.734 64.7677C146.414 68.0627 148.417 71.8553 149.626 75.9272L152.84 86.7463L161.711 115.948Z"
            fill="#3F3D56" />
        <path
            d="M101.992 43.4022C111.957 43.4022 120.035 35.3231 120.035 25.357C120.035 15.3909 111.957 7.31177 101.992 7.31177C92.0278 7.31177 83.95 15.3909 83.95 25.357C83.95 35.3231 92.0278 43.4022 101.992 43.4022Z"
            fill="#FFB6B6" />
        <path
            d="M88.8986 38.0761C88.7411 37.9379 88.5924 37.7904 88.4385 37.6484C88.433 37.663 88.4322 37.6779 88.4263 37.6924L88.8986 38.0761Z"
            fill="#2F2E41" />
        <path
            d="M116.778 6.30121C115.882 4.8579 114.64 3.66056 113.165 2.81724C112.157 2.32824 111.098 1.95288 110.007 1.69804L107.151 0.918852C105.688 0.466078 104.183 0.162967 102.659 0.0141714C100.543 -0.0902585 98.4379 0.389055 96.5752 1.39975C94.7125 2.41045 93.1633 3.91366 92.0969 5.7452C91.2342 7.27556 90.5422 9.1826 88.8772 9.7425C87.5347 10.194 86.07 9.55714 84.659 9.68069C83.8322 9.80052 83.0477 10.1225 82.3751 10.618C81.7024 11.1136 81.1624 11.7674 80.8028 12.5216C80.0996 14.0393 79.7535 15.698 79.7911 17.3703C79.7357 21.1671 80.4765 24.9333 81.966 28.4261C83.4554 31.9188 85.6604 35.0605 88.4385 37.6486C88.9042 36.4209 88.1372 35.0955 87.5309 33.9211C86.9174 32.7328 86.5382 31.0761 87.5658 30.2203C88.7091 29.2679 90.5409 30.1914 91.8931 29.5704C92.3257 29.3219 92.69 28.9701 92.9535 28.5464C93.217 28.1227 93.3716 27.6404 93.4033 27.1425C93.5342 26.1558 93.3975 25.1528 93.4594 24.1593C93.5204 23.1803 93.7737 22.2228 94.2047 21.3417C94.6356 20.4605 95.2359 19.6728 95.9713 19.0237C96.7066 18.3745 97.5626 17.8766 98.4903 17.5583C99.4181 17.24 100.399 17.1076 101.378 17.1686C101.401 17.17 101.423 17.1716 101.446 17.1732C104.524 17.393 107.511 19.4965 110.472 18.6311C111.863 18.225 113.048 17.1908 114.486 17.0168C116.079 16.8241 117.577 17.723 118.929 18.586C119.42 16.4994 119.483 14.3346 119.113 12.223C118.744 10.1114 117.949 8.09675 116.778 6.30121Z"
            fill="#2F2E41" />
        <path
            d="M211.06 339.586L206.469 332.207L205.552 336.424C205.391 337.162 205.23 337.913 205.081 338.657C203.777 337.543 202.389 336.513 201.032 335.525C196.863 332.499 192.697 329.469 188.532 326.436L189.837 334C190.641 338.657 191.48 343.41 193.469 347.668C193.689 348.151 193.928 348.627 194.184 349.092H213.561C213.717 348.66 213.825 348.213 213.882 347.758C213.887 347.728 213.889 347.698 213.888 347.668C214.192 344.78 212.596 342.058 211.06 339.586Z"
            fill="#F0F0F0" />
        <path
            d="M233.605 349.817L45.8141 350C45.6267 349.999 45.4473 349.924 45.3151 349.791C45.1829 349.658 45.1086 349.478 45.1086 349.291C45.1086 349.103 45.1829 348.924 45.3151 348.791C45.4473 348.658 45.6267 348.583 45.8141 348.582L233.605 348.399C233.793 348.4 233.972 348.475 234.105 348.608C234.237 348.741 234.311 348.92 234.311 349.108C234.311 349.295 234.237 349.475 234.105 349.608C233.972 349.741 233.793 349.816 233.605 349.817Z"
            fill="#CACACA" />
        <path
            d="M427.717 115.182C427.676 136.031 419.838 156.11 405.746 171.472C391.653 186.834 372.324 196.368 351.56 198.2C330.795 200.031 310.096 194.028 293.533 181.37C276.969 168.712 265.739 150.314 262.05 129.795C258.362 109.275 262.481 88.1179 273.598 70.482C284.716 52.8461 302.028 40.0075 322.13 34.4903C342.232 28.9731 363.671 31.1763 382.231 40.6668C400.792 50.1573 415.131 66.2486 422.431 85.7771C422.613 86.2675 422.79 86.7578 422.963 87.253V87.2576C423.733 89.434 424.412 91.6509 424.999 93.9083C426.809 100.854 427.722 108.004 427.717 115.182Z"
            fill="#3F3D56" />
        <path
            d="M334.466 58.4628C330.688 56.4198 326.494 55.2665 322.204 55.091C317.913 54.9154 313.639 55.7222 309.707 57.4497C306.245 58.9565 302.6 61.6595 301.445 66.5405C306.116 63.7837 312.162 68.1395 313.364 75.127L313.083 75.2044C312.448 80.0442 313.866 85.3135 316.609 88.3145C316.813 86.9604 317.316 85.6687 318.081 84.5333C318.847 83.3979 319.856 82.4473 321.034 81.7505C323.05 80.4252 325.28 79.4625 326.818 77.1845C328.642 74.4839 329.106 70.5371 329.83 66.9365C330.555 63.336 331.929 59.4661 334.466 58.4628Z"
            fill="#65AAFF" />
        <path
            d="M308.322 99.6482C307.028 101.591 305.3 102.81 303.75 104.328C301.96 105.956 300.786 108.152 300.425 110.544C300.229 112.235 300.533 113.954 300.491 115.663C300.449 117.372 299.879 119.297 298.716 119.722C296.881 120.385 295.48 116.975 293.593 116.737C292.094 116.55 290.745 118.909 291.179 120.955C291.613 123 293.654 123.906 294.826 122.571C295.886 124.35 295.139 127.577 293.547 128.124C293.379 129.245 293.21 130.361 293.047 131.482C289.022 128.665 284.954 125.803 281.532 121.679C277.725 117.131 275.364 111.549 274.751 105.65C274.307 100.909 274.966 95.4869 272.79 91.8393C271.048 88.9203 268.059 88.2757 265.37 88.4579C264.879 88.4906 264.384 88.5466 263.894 88.6074C265.48 83.8424 267.495 79.231 269.913 74.8296C270.46 74.5947 270.969 74.2781 271.422 73.8908C273.925 71.7658 275.036 67.4643 277.067 64.4893C277.198 64.2978 277.333 64.111 277.473 63.9288C279.552 61.2153 282.335 59.8188 285.024 58.5204C290.978 55.6295 297.105 52.7011 303.39 53.1028L301.602 53.2756C299.514 59.123 297.426 64.9703 295.335 70.8177C295.017 71.7144 294.697 72.6127 294.373 73.5125C293.187 76.8378 291.964 80.378 292.146 84.1004C292.253 86.3048 293.019 88.6587 294.476 89.4153C295.835 90.1159 297.32 89.2565 298.632 88.4065C299.188 88.0515 299.739 87.6966 300.294 87.3369C302.288 86.0525 304.497 84.7355 306.603 85.5949C308.532 86.3795 309.956 88.9996 310.227 91.8252C310.475 94.5719 309.805 97.3234 308.322 99.6482Z"
            fill="#65AAFF" />
        <path
            d="M320.181 139.57C314.357 135.983 308.534 132.397 302.71 128.811L302.809 128.556C299.188 129.936 297.685 136.373 298.283 141.637C298.881 146.901 300.91 151.607 301.935 156.737C303.318 163.756 302.796 171.018 300.425 177.767C308.082 169.174 314.859 159.834 320.654 149.888C321.463 148.634 322.08 147.266 322.484 145.83C322.911 144.299 322.759 142.664 322.056 141.238C321.579 140.535 320.935 139.961 320.181 139.57Z"
            fill="#65AAFF" />
        <path
            d="M297.197 74.3262C296.513 75.7947 296.408 77.467 296.902 79.0098C297.476 80.2528 298.519 81.2184 299.802 81.6963L303.02 83.2915C304.09 83.8222 305.244 84.3582 306.335 83.9215C307.652 83.3949 308.564 81.3311 308.328 79.4151C308.077 77.3763 306.792 75.9738 305.604 74.7795C303.94 73.1082 302.277 71.4369 300.614 69.7656L299.677 70.9138C298.663 71.9027 297.825 73.0566 297.197 74.3262Z"
            fill="#65AAFF" />
        <path
            d="M410.467 96.1221C411.914 96.4631 413.362 96.804 414.81 97.1449C414.557 102.035 412.134 106.561 408.884 108.2C407.529 108.882 406.021 109.134 404.9 110.409C403.887 111.567 403.373 113.37 402.902 115.093C402.075 118.101 401.249 121.109 400.422 124.117C399.535 127.358 398.396 130.959 396.089 132.126C394.109 133.13 391.844 131.902 390.322 129.842C388.799 127.783 387.87 125.013 386.969 122.314C387.025 125.256 385.657 128.142 383.719 129.165C381.776 130.188 379.413 129.263 378.115 126.98C377.181 125.34 376.794 123.178 375.878 121.515C374.963 119.852 373.044 118.9 372.044 120.46C371.386 121.497 371.47 123.084 371.143 124.401C370.979 125.276 370.546 126.077 369.905 126.694C369.263 127.311 368.446 127.713 367.566 127.844C366.757 127.825 365.96 127.642 365.224 127.305C364.488 126.969 363.828 126.486 363.284 125.887C360.424 122.961 358.563 119.206 357.965 115.159C357.56 113.218 357.611 111.21 358.115 109.293C358.689 107.476 360.076 106.075 361.453 106.42C362.359 104.505 360.571 101.965 358.96 102.189C357.344 102.413 356.079 104.146 354.752 105.477C353.431 106.808 351.582 107.775 350.251 106.453C350.281 106.936 350.117 107.412 349.796 107.775C349.476 108.138 349.024 108.358 348.541 108.388C348.493 108.391 348.445 108.392 348.397 108.391C347.512 108.137 346.69 107.701 345.983 107.112C342.933 105.211 339.062 106.472 336.896 110.068C338.25 104.305 340.234 97.6913 344.395 96.3369C346.095 95.7811 347.949 96.2388 349.555 95.2767C352.399 93.572 352.973 87.1315 350.517 84.4741C350.83 86.9867 350.769 89.9198 349.443 91.6385C348.117 93.3573 345.334 92.2363 345.502 89.6956C345.464 90.053 345.314 90.3892 345.074 90.6561C344.833 90.9231 344.514 91.1071 344.163 91.1817C343.812 91.2564 343.445 91.2179 343.117 91.0717C342.789 90.9256 342.516 90.6793 342.336 90.3681C341.453 89.0231 341.528 86.8233 342.154 85.2167C342.799 83.7616 343.724 82.4476 344.876 81.3496C347.094 78.9724 349.345 76.5671 351.913 75.0726C354.486 73.578 357.456 73.0737 360.034 74.5589C361.393 75.3434 362.588 76.6512 363.975 77.3424C364.301 77.5447 364.664 77.6807 365.042 77.7429C365.421 77.805 365.808 77.7919 366.181 77.7045C366.555 77.617 366.907 77.4568 367.219 77.2331C367.53 77.0093 367.795 76.7264 367.997 76.4004C368.012 76.3753 368.028 76.3499 368.043 76.3242C369.075 74.5121 368.589 71.8219 368.972 69.5568C369.658 65.5543 373.66 63.6814 375.878 66.3249C374.221 65.8999 372.507 67.8615 372.301 70.2387C372.091 72.616 373.291 75.0166 374.898 75.7358C377.597 76.9314 380.24 73.9236 382.281 71.1401C384.41 68.2257 386.542 65.313 388.678 62.4018C389.019 61.9061 389.402 61.4405 389.822 61.01C390.491 60.3579 391.383 59.9846 392.316 59.9655C393.25 59.9464 394.156 60.2831 394.851 60.9073C397.009 62.668 398.022 66.2782 399.792 68.7629C402.36 72.3731 406.203 73.2511 409.78 73.9517C412.447 74.4701 415.115 74.9917 417.784 75.5163C419.564 78.8273 421.116 82.2556 422.431 85.7772C417.535 88.0098 413.383 91.6001 410.467 96.1221Z"
            fill="#65AAFF" />
        <path
            d="M424.999 93.9084C424.452 95.5212 424.153 97.2077 424.112 98.9104C421.823 96.1175 421.459 90.882 422.963 87.2577C423.733 89.4341 424.412 91.651 424.999 93.9084Z"
            fill="#65AAFF" />
        <path
            d="M419.087 152.317C417.086 156.38 414.76 160.273 412.129 163.96C410.448 163.241 408.641 164.525 407.067 165.73C405.423 166.991 403.448 168.219 401.762 167.07C400.039 165.893 399.484 162.601 400.03 159.99C400.658 157.582 401.756 155.321 403.261 153.339C404.662 151.247 406.161 149.075 408.109 148.263C410.061 147.45 412.568 148.599 413.138 151.373L414.52 151.326C413.745 150.262 414.151 148.057 415.193 147.669C416.393 147.216 417.434 148.865 418.144 150.322C418.461 150.981 418.784 151.644 419.087 152.317Z"
            fill="#65AAFF" />
        <path
            d="M366.149 132.589C363.178 132.776 360.824 129.118 359.26 125.519C357.697 121.921 356.27 117.805 353.589 115.973C352.057 114.927 350.311 114.783 348.649 114.276C347.707 114.038 346.835 113.579 346.105 112.936C345.376 112.294 344.81 111.487 344.455 110.582L342.57 109.821C339.934 111.139 337.519 112.86 335.414 114.924C333.009 117.479 331.511 120.755 331.151 124.246C330.791 128.019 332.12 132.226 334.604 133.644C336.567 134.764 338.852 134.058 340.84 135.083C343.324 136.364 344.799 140.085 345.357 143.759C345.916 147.433 345.774 151.251 346.174 154.966C346.573 158.682 347.674 162.548 349.952 164.453C352.802 166.835 356.985 164.855 358.264 160.518C358.892 158.39 358.87 155.989 359.339 153.781C360.166 149.891 362.396 147.006 364.164 143.815C365.933 140.625 367.325 136.292 366.149 132.589Z"
            fill="#65AAFF" />
        <path
            d="M336.79 94.3704C337.068 94.6255 337.326 94.9 337.564 95.1919C337.811 95.6168 337.936 96.1008 337.928 96.5919C337.92 97.083 337.777 97.5626 337.517 97.9788C337.875 97.9584 338.224 97.864 338.544 97.7016C338.863 97.5392 339.146 97.3122 339.373 97.0351C339.915 96.4174 340.392 95.7454 340.797 95.0297C340.987 94.7846 341.122 94.5018 341.195 94.2002C341.267 93.8986 341.274 93.585 341.216 93.2803C341.076 92.8797 340.744 92.7088 340.511 92.4075C340.189 91.8185 339.969 91.1789 339.86 90.5161C339.731 89.8949 339.432 89.3219 338.995 88.8617C338.558 88.4014 338.002 88.0721 337.388 87.9106L337.537 87.9391C337.284 88.0895 337.084 88.3155 336.965 88.5853C336.847 88.8551 336.815 89.1553 336.876 89.4438C336.966 90.0266 337.34 90.5104 337.303 91.1048C337.25 91.9596 336.395 92.3607 336.343 93.2155C336.334 93.6444 336.495 94.0593 336.79 94.3704Z"
            fill="#65AAFF" />
        <path d="M331.7 79.8453L331.713 79.8427C331.805 79.7594 331.89 79.6691 331.967 79.5726L331.7 79.8453Z"
            fill="#65AAFF" />
        <path
            d="M332.591 83.8573C332.948 83.5441 333.212 83.1389 333.354 82.6859C333.496 82.2329 333.511 81.7495 333.398 81.2885C333.182 80.3166 332.418 79.6632 331.713 79.8427C331.509 80.0499 331.255 80.2018 330.976 80.284C330.697 80.3663 330.401 80.3761 330.117 80.3127C329.682 80.2005 329.203 79.9117 328.825 80.2399C328.609 80.4851 328.458 80.7805 328.386 81.0992C328.246 81.5285 328.106 81.9578 327.966 82.3871C327.9 82.5408 327.882 82.7113 327.916 82.8752C327.943 82.9409 327.986 82.9985 328.042 83.0427C328.097 83.0868 328.163 83.116 328.233 83.1272C329.072 83.3746 329.911 83.622 330.75 83.8694C331.039 84.0025 331.354 84.0705 331.672 84.0684C331.99 84.0663 332.304 83.9942 332.591 83.8573Z"
            fill="#65AAFF" />
        <path
            d="M395.932 139.248C395.544 138.613 395.156 137.978 394.768 137.343C394.387 136.607 393.867 135.953 393.235 135.417C393.098 135.303 392.94 135.216 392.77 135.163C392.6 135.109 392.421 135.09 392.243 135.105C392.065 135.121 391.893 135.172 391.734 135.254C391.576 135.337 391.436 135.45 391.321 135.586L391.301 135.611L391.348 135.974C392.387 137.087 393.095 138.468 393.392 139.962C393.48 140.611 393.45 141.282 393.527 141.934C393.535 142.237 393.603 142.534 393.726 142.81C393.849 143.086 394.026 143.335 394.246 143.543C394.856 143.951 395.573 143.35 396.008 142.616C396.397 142.013 396.571 141.296 396.503 140.582C396.406 140.103 396.212 139.649 395.932 139.248Z"
            fill="#65AAFF" />
        <path
            d="M402.016 140.075C402.09 139.48 402.042 138.877 401.874 138.301C401.846 137.523 402.053 136.754 402.466 136.095C402.877 135.472 403.189 134.79 403.389 134.071C403.474 133.744 403.458 133.399 403.345 133.08C403.216 132.792 402.905 132.66 402.727 132.889L403.109 133.135C402.593 133.043 402.064 133.068 401.56 133.21C401.272 133.32 401.015 133.498 400.811 133.728C400.607 133.958 400.461 134.235 400.386 134.533C400.323 134.999 400.22 135.459 400.078 135.907C399.85 136.375 399.41 136.53 399.133 136.941C398.944 137.305 398.848 137.711 398.855 138.121C398.862 138.531 398.971 138.933 399.172 139.291C399.519 139.876 400.072 140.311 400.723 140.511C401.189 140.679 401.803 140.687 402.016 140.075Z"
            fill="#65AAFF" />
        <path
            d="M412.851 143.344C413.019 143.783 413.245 144.197 413.522 144.576C414.041 145.099 414.746 144.778 415.375 144.651C415.946 144.561 416.531 144.627 417.067 144.842C417.604 145.057 418.072 145.414 418.423 145.873C418.179 144.656 417.646 143.515 416.87 142.547C416.093 141.578 415.096 140.81 413.961 140.306C412.487 139.796 410.933 139.553 409.373 139.589L409.106 139.657C409.785 141.634 411.917 141.59 412.851 143.344Z"
            fill="#65AAFF" />
        <path d="M366.961 147.387L366.965 147.396L367.043 147.247L366.961 147.387Z" fill="#65AAFF" />
        <path
            d="M365.318 150.569C364.959 151.22 364.651 151.898 364.395 152.595C364.057 153.726 363.833 154.887 363.727 156.062C363.644 156.73 363.618 157.583 364.036 157.909C364.157 157.989 364.302 158.022 364.445 158.003C364.588 157.983 364.719 157.912 364.813 157.803C365.046 157.557 365.236 157.275 365.376 156.967C366.199 155.55 366.837 154.034 367.277 152.455C367.735 150.781 367.626 149.002 366.965 147.396C366.416 148.454 365.867 149.512 365.318 150.569Z"
            fill="#65AAFF" />
        <path
            d="M349.461 65.794C349.722 66.0492 350.052 66.2225 350.41 66.2924C350.769 66.3624 351.14 66.326 351.478 66.1876C352.177 65.8817 352.819 65.4576 353.375 64.934C353.836 64.5933 354.226 64.1672 354.526 63.679C354.691 63.3872 354.796 63.0657 354.837 62.733C354.877 62.4002 354.851 62.0628 354.761 61.74C354.632 61.4307 354.427 61.1594 354.164 60.9516C353.902 60.7438 353.59 60.6064 353.26 60.5525C352.329 60.2762 351.397 60 350.466 59.7239L351.14 59.1166C350.447 58.7445 349.68 59.435 349.247 60.2899C348.969 60.8481 348.775 61.4443 348.672 62.0592C348.525 62.7017 348.519 63.3686 348.655 64.0135C348.791 64.6585 349.066 65.266 349.461 65.794Z"
            fill="#65AAFF" />
        <path
            d="M365.903 60.2734C366.165 60.5628 366.528 60.7415 366.917 60.7731C367.307 60.8048 367.694 60.6871 368 60.444C368.263 60.2463 368.481 59.9953 368.641 59.7074C368.801 59.4196 368.898 59.1013 368.927 58.7733C368.993 58.0406 368.631 57.2263 368.113 57.1631L368.232 56.4771C367.235 56.2971 366.009 56.261 365.475 57.4714C365.295 57.935 365.24 58.4378 365.315 58.9295C365.39 59.4212 365.593 59.8846 365.903 60.2734Z"
            fill="#65AAFF" />
        <g opacity="0.35">
            <path
                d="M523.56 119.324C529.06 116.926 517.907 115.53 505.253 115.071C492.6 114.612 477.292 114.637 469.206 113.331C461.385 112.069 461.962 109.823 461.304 107.789C460.646 105.755 457.639 103.669 445.436 103.217C430.229 102.654 405.152 104.822 393.672 103.52C382.96 102.305 389.327 98.4934 373.706 98.3475C364.786 98.2642 353.295 99.5209 343.37 99.8242C336.334 100.129 329.286 99.7618 322.32 98.7265C317.483 97.9338 314.113 96.9288 308.669 96.2286C294.374 94.3903 266.408 95.0082 241.446 97.3643C216.485 99.7203 195.089 103.581 183.022 107.406C170.955 111.23 167.621 114.995 170.432 118.188C172.227 120.227 176.82 122.133 187.962 122.953C208.801 124.485 245.904 121.847 267.438 123.242C279.44 124.019 284.764 125.945 295.295 126.999C306.608 128.132 323.169 128.192 339.441 128.165C373.321 128.109 408.067 127.761 443.497 127.123C458.296 126.856 473.802 126.509 489.549 125.238C505.296 123.967 521.358 121.515 524.68 119.217"
                fill="white" />
        </g>
        <path
            d="M427.947 225.249C420.258 225.249 411.831 224.959 402.665 224.378C355.256 221.367 293.847 210.898 229.75 194.901C165.653 178.904 106.526 159.289 63.2604 139.671C42.1846 130.114 26.009 121.067 15.1835 112.782C3.72215 104.011 -1.29123 96.3654 0.282093 90.0589C3.34763 77.7728 30.4918 75.0848 52.7231 74.9935L52.7306 76.7803C22.2012 76.9056 4.19029 81.7752 2.01565 90.4917C-0.754464 101.593 21.8374 118.925 63.9981 138.043C107.168 157.619 166.187 177.196 230.183 193.168C294.178 209.139 355.474 219.59 402.779 222.594C448.976 225.529 477.061 220.845 479.831 209.743C482.131 200.525 466.97 186.947 437.141 171.508L437.962 169.921C459.636 181.14 484.795 197.229 481.565 210.176C479.991 216.482 471.974 220.875 457.736 223.232C449.62 224.576 439.651 225.249 427.947 225.249Z"
            fill="#65AAFF" />
        <path
            d="M134.578 227.576C113.379 227.577 93.6714 226.849 76.0283 225.381C52.9671 223.462 34.6928 220.376 21.7137 216.211C7.97181 211.801 0.681449 206.285 0.0449631 199.816C-1.19544 187.215 23.4679 175.561 44.3762 168.004L44.9833 169.685C16.2708 180.062 0.942872 190.701 1.82271 199.641C2.94332 211.028 30.0441 219.761 76.1763 223.6C123.413 227.531 185.578 226.138 251.218 219.675C316.859 213.214 378.102 202.459 423.666 189.393C468.164 176.632 493.043 162.782 491.922 151.396C490.992 141.941 472.151 134.247 438.869 129.729L439.11 127.959C463.292 131.241 492.394 137.942 493.7 151.22C494.337 157.689 488.261 164.521 475.643 171.526C463.725 178.142 446.403 184.732 424.158 191.11C378.494 204.206 317.138 214.982 251.393 221.454C210.15 225.514 170.261 227.576 134.578 227.576Z"
            fill="#65AAFF" />
        <path
            d="M260.733 265.315C266.482 265.315 271.144 260.653 271.144 254.902C271.144 249.152 266.482 244.49 260.733 244.49C254.983 244.49 250.322 249.152 250.322 254.902C250.322 260.653 254.983 265.315 260.733 265.315Z"
            fill="#65AAFF" />
        <path
            d="M55.7222 203.84C61.472 203.84 66.1331 199.178 66.1331 193.427C66.1331 187.677 61.472 183.015 55.7222 183.015C49.9724 183.015 45.3113 187.677 45.3113 193.427C45.3113 199.178 49.9724 203.84 55.7222 203.84Z"
            fill="#E6E6E6" />
        <path
            d="M246.873 44.2363C250.393 44.2363 253.246 41.3825 253.246 37.8622C253.246 34.3419 250.393 31.4882 246.873 31.4882C243.353 31.4882 240.5 34.3419 240.5 37.8622C240.5 41.3825 243.353 44.2363 246.873 44.2363Z"
            fill="#FF6584" />
        <path
            d="M208.313 92.3532C214.063 92.3532 218.724 87.6914 218.724 81.9407C218.724 76.19 214.063 71.5282 208.313 71.5282C202.563 71.5282 197.902 76.19 197.902 81.9407C197.902 87.6914 202.563 92.3532 208.313 92.3532Z"
            fill="#E6E6E6" />
    </g>
    <defs>
        <clipPath id="clip0_36_157">
            <rect width="525" height="350" fill="white" />
        </clipPath>
    </defs>
</svg>