<svg width="525" height="472" viewBox="0 0 525 472" fill="none" xmlns="http://www.w3.org/2000/svg">
    <g clip-path="url(#clip0_36_315)">
        <path
            d="M402.723 463.433C400.854 465.95 398.538 468.101 395.889 469.78C395.326 470.136 394.747 470.473 394.159 470.785H380.314C380.48 470.453 380.641 470.116 380.797 469.78C385.09 460.728 386.436 450.56 384.646 440.704C382.856 430.849 378.021 421.802 370.819 414.834C379.187 417.417 386.922 422.452 391.981 429.593C394.44 433.071 396.188 436.998 397.126 441.151C397.962 432.845 396.633 424.465 393.269 416.824C400.063 422.347 405.354 429.91 407.37 438.423C409.387 446.94 407.923 456.393 402.723 463.433Z"
            fill="#F0F0F0" />
        <path d="M408.332 471.207H278.715V470.149H408.524L408.332 471.207Z" fill="#3F3D56" />
        <path
            d="M256.063 162.098C256.063 181.515 249.274 198.093 236.355 210.43C227.187 219.189 213.065 231.466 213.065 244.446V255.185H170.067V244.446C170.067 231.33 155.89 219.028 146.777 210.43C134.149 198.525 127.069 180.822 127.069 162.098V161.701C127.124 144.61 133.971 128.241 146.104 116.194C158.236 104.147 174.661 97.4091 191.765 97.4617C208.869 97.5144 225.251 104.353 237.309 116.475C249.367 128.596 256.113 145.007 256.063 162.098Z"
            fill="#65AAFF" />
        <path
            d="M213.065 256.692C212.665 256.692 212.281 256.533 211.998 256.251C211.715 255.968 211.556 255.584 211.556 255.185V244.444C211.556 231.818 224.017 220.031 233.117 211.425C233.871 210.711 234.606 210.018 235.311 209.342C247.898 197.318 254.552 180.982 254.552 162.098C254.552 126.807 226.885 99.1613 191.567 99.1613H191.389C174.768 99.1799 158.83 105.774 147.061 117.501C135.291 129.229 128.647 145.136 128.582 161.744V162.096C128.582 180.589 135.592 197.806 147.815 209.336C148.434 209.921 149.078 210.522 149.738 211.14C158.955 219.763 171.578 231.571 171.578 244.444V255.185C171.578 255.584 171.419 255.968 171.136 256.251C170.853 256.533 170.469 256.692 170.069 256.692C169.669 256.692 169.285 256.533 169.002 256.251C168.719 255.968 168.56 255.584 168.56 255.185V244.444C168.56 232.878 156.49 221.586 147.676 213.338C147.012 212.718 146.368 212.114 145.744 211.526C132.92 199.43 125.564 181.413 125.564 162.096V161.735C125.665 125.531 155.178 96.1442 191.384 96.1442H191.571C208.984 96.0537 225.72 102.879 238.097 115.119C250.474 127.358 257.479 144.01 257.569 161.41C257.57 161.639 257.57 161.869 257.569 162.098C257.569 181.825 250.593 198.915 237.397 211.522C236.688 212.199 235.95 212.897 235.191 213.615C226.491 221.844 214.572 233.115 214.572 244.444V255.185C214.572 255.584 214.413 255.968 214.13 256.251C213.847 256.533 213.463 256.692 213.063 256.692H213.065Z"
            fill="#9FCAFF" />
        <path
            d="M205.899 276.037H177.234C176.567 276.037 175.927 275.772 175.456 275.301C174.984 274.83 174.719 274.191 174.719 273.524C174.719 272.858 174.984 272.219 175.456 271.748C175.927 271.276 176.567 271.012 177.234 271.012H205.899C206.566 271.012 207.206 271.276 207.677 271.748C208.149 272.219 208.414 272.858 208.414 273.524C208.414 274.191 208.149 274.83 207.677 275.301C207.206 275.772 206.566 276.037 205.899 276.037Z"
            fill="#65AAFF" />
        <path
            d="M194.649 292.871H188.48C186.337 292.872 184.234 292.29 182.398 291.187C182.125 291.029 181.914 290.783 181.799 290.49C181.683 290.197 181.669 289.874 181.76 289.572C181.842 289.262 182.026 288.989 182.281 288.794C182.535 288.599 182.848 288.494 183.169 288.496H199.96C200.281 288.494 200.593 288.599 200.848 288.794C201.103 288.989 201.286 289.262 201.369 289.572C201.46 289.874 201.446 290.197 201.33 290.49C201.214 290.783 201.003 291.029 200.731 291.187C198.895 292.29 196.792 292.873 194.649 292.871Z"
            fill="#9FCAFF" />
        <path
            d="M205.904 283.973L177.069 283.97L176.979 283.779C176.894 283.427 176.891 283.06 176.969 282.707C177.048 282.353 177.206 282.022 177.432 281.74C177.661 281.449 177.953 281.215 178.286 281.054C178.619 280.893 178.984 280.81 179.354 280.811H203.774C204.144 280.81 204.51 280.893 204.843 281.054C205.176 281.215 205.468 281.449 205.697 281.74C205.921 282.019 206.079 282.345 206.158 282.694C206.237 283.043 206.236 283.405 206.155 283.754L206.11 283.948L205.904 283.973Z"
            fill="#9FCAFF" />
        <path
            d="M124.882 102.872C124.274 102.872 123.686 102.652 123.229 102.252L101.635 83.417C101.14 82.9767 100.839 82.359 100.798 81.6983C100.756 81.0376 100.978 80.3873 101.413 79.8885C101.849 79.3898 102.464 79.0831 103.125 79.035C103.785 78.9868 104.439 79.2012 104.942 79.6315L126.536 98.4665C126.922 98.8029 127.196 99.2489 127.321 99.7449C127.446 100.241 127.417 100.763 127.237 101.242C127.057 101.721 126.735 102.134 126.314 102.425C125.893 102.716 125.394 102.872 124.882 102.872V102.872Z"
            fill="#9FCAFF" />
        <path
            d="M254.67 102.871C254.158 102.872 253.658 102.716 253.237 102.424C252.816 102.133 252.494 101.721 252.315 101.242C252.135 100.763 252.105 100.24 252.231 99.7442C252.356 99.2482 252.63 98.8022 253.015 98.4658L274.609 79.6294C275.112 79.199 275.765 78.9847 276.426 79.0328C277.087 79.0809 277.702 79.3876 278.138 79.8864C278.573 80.3851 278.795 81.0354 278.753 81.6961C278.712 82.3568 278.411 82.9745 277.916 83.4148L256.322 102.25C255.865 102.65 255.278 102.871 254.67 102.871Z"
            fill="#9FCAFF" />
        <path
            d="M213.065 267.119H170.066C169.399 267.119 168.76 266.855 168.288 266.384C167.817 265.912 167.552 265.273 167.552 264.607C167.552 263.94 167.817 263.301 168.288 262.83C168.76 262.359 169.399 262.094 170.066 262.094H213.065C213.731 262.094 214.371 262.359 214.843 262.83C215.314 263.301 215.579 263.94 215.579 264.607C215.579 265.273 215.314 265.912 214.843 266.384C214.371 266.855 213.731 267.119 213.065 267.119Z"
            fill="#65AAFF" />
        <path
            d="M190.51 201.48L181.568 255.184H176.464L185.546 200.656C185.656 199.998 186.022 199.411 186.565 199.023C187.108 198.635 187.782 198.479 188.441 198.588C189.099 198.697 189.687 199.064 190.075 199.606C190.463 200.148 190.619 200.822 190.51 201.48Z"
            fill="white" />
        <path
            d="M207.694 255.184H202.59L193.648 201.48C193.539 200.822 193.695 200.148 194.083 199.606C194.471 199.064 195.059 198.697 195.717 198.588C196.376 198.479 197.05 198.635 197.593 199.023C198.136 199.411 198.502 199.998 198.612 200.656L207.694 255.184Z"
            fill="white" />
        <path
            d="M175.224 199.686C175.224 199.02 175.489 198.381 175.96 197.91C176.432 197.439 177.072 197.174 177.738 197.174H205.395C206.061 197.174 206.701 197.439 207.173 197.91C207.644 198.381 207.909 199.02 207.909 199.686C207.909 200.353 207.644 200.992 207.173 201.463C206.701 201.934 206.061 202.199 205.395 202.199H177.738C177.072 202.199 176.432 201.934 175.96 201.463C175.489 200.992 175.224 200.353 175.224 199.686Z"
            fill="white" />
        <path
            d="M191.567 77.7902C190.9 77.7902 190.26 77.5255 189.788 77.0543C189.317 76.583 189.052 75.944 189.052 75.2776V32.3122C189.052 31.6458 189.317 31.0067 189.788 30.5355C190.26 30.0643 190.9 29.7996 191.567 29.7996C192.233 29.7996 192.873 30.0643 193.345 30.5355C193.816 31.0067 194.081 31.6458 194.081 32.3122V75.2776C194.081 75.944 193.816 76.583 193.345 77.0543C192.873 77.5255 192.233 77.7902 191.567 77.7902Z"
            fill="#9FCAFF" />
        <path
            d="M155.619 432.631C154.386 437.503 159.057 442.89 166.052 444.665C173.048 446.44 179.718 443.929 180.952 439.058C182.185 434.186 177.514 428.798 170.518 427.024C163.523 425.249 156.852 427.759 155.619 432.631Z"
            fill="#3F3D56" />
        <path
            d="M54.1613 361.129C52.9281 366.001 57.5993 371.389 64.5946 373.163C71.59 374.938 78.2606 372.428 79.4938 367.556C80.7271 362.685 76.0559 357.297 69.0606 355.522C62.0652 353.747 55.3946 356.258 54.1613 361.129Z"
            fill="#65AAFF" />
        <path
            d="M34.2471 334.376C33.7406 338.913 35.8861 342.877 39.0392 343.23C42.1923 343.583 45.159 340.19 45.6655 335.653C46.1719 331.115 44.0264 327.151 40.8733 326.798C37.7201 326.446 34.7535 329.838 34.2471 334.376Z"
            fill="#E6E6E6" />
        <path
            d="M27.2108 280.795C26.7044 285.333 28.8499 289.297 32.0031 289.649C35.1562 290.002 38.1228 286.61 38.6293 282.072C39.1358 277.535 36.9903 273.571 33.8372 273.218C30.684 272.865 27.7173 276.258 27.2108 280.795Z"
            fill="#3F3D56" />
        <path
            d="M114.56 382.913C114.053 387.45 116.199 391.414 119.352 391.767C122.505 392.12 125.472 388.727 125.978 384.19C126.484 379.652 124.339 375.688 121.186 375.335C118.033 374.983 115.066 378.375 114.56 382.913Z"
            fill="#E6E6E6" />
        <path
            d="M71.569 399.08C71.0625 403.618 73.2081 407.582 76.3612 407.935C79.5143 408.287 82.481 404.895 82.9875 400.357C83.494 395.82 81.3484 391.856 78.1953 391.503C75.0422 391.15 72.0755 394.543 71.569 399.08Z"
            fill="#65AAFF" />
        <path
            d="M124.532 442.761C124.025 447.299 126.171 451.263 129.324 451.615C132.477 451.968 135.444 448.576 135.95 444.038C136.457 439.501 134.311 435.537 131.158 435.184C128.005 434.831 125.038 438.224 124.532 442.761Z"
            fill="#3F3D56" />
        <path d="M374.419 464.177H368.254L365.321 440.414H374.42L374.419 464.177Z" fill="#FEB8B8" />
        <path
            d="M375.991 470.149H356.111V469.898C356.111 467.848 356.926 465.881 358.377 464.431C359.828 462.981 361.796 462.167 363.848 462.166H375.991L375.991 470.149Z"
            fill="#2F2E41" />
        <path d="M327.58 463.974L321.623 462.383L324.932 438.669L333.723 441.018L327.58 463.974Z" fill="#FEB8B8" />
        <path
            d="M327.555 470.149L308.35 465.018L308.414 464.775C308.945 462.794 310.241 461.104 312.017 460.078C313.794 459.052 315.906 458.773 317.889 459.302L329.619 462.437L327.555 470.149Z"
            fill="#2F2E41" />
        <path
            d="M377.965 331.004L383.13 336.999L376.451 458.831H362.184L354.993 365.086L332.69 461.345L317.858 457.71L331.344 335.447L377.965 331.004Z"
            fill="#2F2E41" />
        <path
            d="M334.792 252.347L348.997 245.225L370.842 245.609L389.64 255.221L378.944 308.597L383.565 336.427C365.707 340.977 347.012 341.131 329.083 336.875L328.94 336.841C328.94 336.841 339.558 299.194 335.038 287.705L334.792 252.347Z"
            fill="#3F3D56" />
        <path
            d="M375.887 223.9C375.871 219.641 374.165 215.563 371.143 212.56C368.121 209.556 364.03 207.874 359.768 207.882C355.505 207.89 351.421 209.587 348.41 212.602C345.399 215.616 343.708 219.701 343.708 223.96C343.708 228.219 345.399 232.303 348.41 235.318C351.421 238.332 355.505 240.029 359.768 240.037C364.03 240.045 368.121 238.363 371.143 235.36C374.165 232.357 375.871 228.278 375.887 224.019V223.9Z"
            fill="#FEB8B8" />
        <path
            d="M332.832 291.262C333.137 292.047 333.611 292.755 334.221 293.337C334.83 293.919 335.559 294.36 336.358 294.63C337.156 294.899 338.004 294.991 338.841 294.897C339.679 294.804 340.485 294.529 341.205 294.09L370.048 309.326L370.982 302.305L342.955 285.791C342.138 284.632 340.923 283.813 339.542 283.489C338.161 283.165 336.709 283.359 335.461 284.033C334.213 284.708 333.256 285.816 332.771 287.149C332.287 288.481 332.308 289.945 332.831 291.262H332.832Z"
            fill="#FEB8B8" />
        <path
            d="M371.268 292.476C370.798 293.175 370.18 293.762 369.458 294.197C368.736 294.631 367.928 294.902 367.09 294.991C366.252 295.079 365.405 294.983 364.608 294.709C363.811 294.435 363.084 293.99 362.478 293.405L330.996 301.965L331.27 293.051L362.587 284.924C363.638 283.972 365.002 283.438 366.421 283.424C367.84 283.41 369.215 283.916 370.285 284.847C371.355 285.779 372.046 287.069 372.227 288.476C372.408 289.882 372.067 291.306 371.267 292.477L371.268 292.476Z"
            fill="#FEB8B8" />
        <path
            d="M383.502 255.607L389.64 255.223C389.64 255.223 396.826 264.698 392.84 274.98C392.84 274.98 393.531 311.915 377.614 310.397C361.698 308.88 356.668 308.88 356.668 308.88L361.446 295.563L372.134 292.266C372.134 292.266 368.84 277.746 375.075 271.705L383.502 255.607Z"
            fill="#3F3D56" />
        <path
            d="M339.18 255.283L338.312 250.839C338.312 250.839 325.518 250.538 322.989 269.91C322.989 269.91 311.484 298.902 322.76 302.635C334.037 306.368 346.442 302.635 346.442 302.635L345.508 289.849L333.101 287.32C333.101 287.32 339.511 279.034 336.02 271.846L339.18 255.283Z"
            fill="#3F3D56" />
        <path
            d="M365.368 231.795C364.185 231.331 362.874 231.355 361.624 231.126C357.151 230.303 353.702 225.746 354.126 221.222C354.233 220.635 354.243 220.036 354.155 219.446C353.846 218.155 352.41 217.462 351.09 217.308C349.771 217.153 348.408 217.351 347.125 217.008C345.144 216.478 343.663 214.672 343.162 212.685C342.734 210.664 342.957 208.56 343.799 206.673L344.415 207.955C345.055 207.276 345.492 206.431 345.675 205.517C346.213 205.546 346.734 205.712 347.189 206C347.644 206.288 348.017 206.688 348.273 207.161C349.068 207.516 348.971 205.701 349.764 205.342C350.121 205.256 350.497 205.305 350.82 205.479C352.566 206.065 354.419 205.186 356.149 204.557C359.147 203.47 362.358 203.103 365.524 203.486C367.628 203.743 369.751 204.364 371.388 205.707C372.682 206.878 373.733 208.29 374.484 209.865C376.504 213.638 378.026 217.8 377.985 222.081C377.944 225.585 376.865 228.998 374.885 231.89C373.853 233.39 370.519 238.595 368.304 238.022C365.521 237.304 368.7 233.101 365.368 231.795Z"
            fill="#2F2E41" />
        <path
            d="M379.026 56.4342C380.259 51.5626 375.588 46.1748 368.593 44.4001C361.598 42.6254 354.927 45.136 353.694 50.0075C352.46 54.879 357.132 60.2668 364.127 62.0415C371.122 63.8162 377.793 61.3057 379.026 56.4342Z"
            fill="#3F3D56" />
        <path
            d="M480.484 127.936C481.717 123.064 477.046 117.676 470.051 115.902C463.056 114.127 456.385 116.638 455.152 121.509C453.918 126.381 458.59 131.769 465.585 133.543C472.58 135.318 479.251 132.807 480.484 127.936Z"
            fill="#65AAFF" />
        <path
            d="M500.398 154.69C500.905 150.152 498.759 146.188 495.606 145.835C492.453 145.482 489.486 148.875 488.98 153.412C488.473 157.95 490.619 161.914 493.772 162.267C496.925 162.619 499.892 159.227 500.398 154.69Z"
            fill="#E6E6E6" />
        <path
            d="M507.434 208.27C507.941 203.733 505.795 199.768 502.642 199.416C499.489 199.063 496.522 202.455 496.016 206.993C495.509 211.53 497.655 215.495 500.808 215.847C503.961 216.2 506.928 212.808 507.434 208.27Z"
            fill="#3F3D56" />
        <path
            d="M420.086 106.153C420.592 101.615 418.447 97.651 415.294 97.2983C412.14 96.9456 409.174 100.338 408.667 104.876C408.161 109.413 410.306 113.377 413.459 113.73C416.613 114.083 419.579 110.69 420.086 106.153Z"
            fill="#E6E6E6" />
        <path
            d="M463.076 89.9853C463.583 85.4478 461.437 81.4836 458.284 81.1309C455.131 80.7782 452.164 84.1706 451.658 88.708C451.151 93.2455 453.297 97.2098 456.45 97.5625C459.603 97.9152 462.57 94.5227 463.076 89.9853Z"
            fill="#65AAFF" />
        <path
            d="M410.113 46.3044C410.62 41.7669 408.474 37.8026 405.321 37.4499C402.168 37.0972 399.201 40.4897 398.695 45.0271C398.188 49.5646 400.334 53.5288 403.487 53.8815C406.64 54.2342 409.607 50.8418 410.113 46.3044Z"
            fill="#3F3D56" />
    </g>
    <defs>
        <clipPath id="clip0_36_315">
            <rect width="525" height="471.536" fill="white" />
        </clipPath>
    </defs>
</svg>